<svg xmlns="http://www.w3.org/2000/svg" xmlns:xlink="http://www.w3.org/1999/xlink" viewBox="0 0 1400 1443.44"><defs><radialGradient id="a" cx="700" cy="721.72" r="780.49" gradientTransform="translate(0 -242.87) scale(1 1.34)" gradientUnits="userSpaceOnUse"><stop offset="0" stop-color="#676fad"/><stop offset="0.91" stop-color="#222651"/></radialGradient><linearGradient id="b" x1="525.59" y1="449.96" x2="870.07" y2="449.96" gradientUnits="userSpaceOnUse"><stop offset="0" stop-color="#c7cce9"/><stop offset="0.91" stop-color="#848484"/></linearGradient><linearGradient id="c" x1="416.65" y1="755.42" x2="983.35" y2="755.42" xlink:href="#b"/><linearGradient id="d" x1="491.08" y1="701.4" x2="900.56" y2="701.4" gradientUnits="userSpaceOnUse"><stop offset="0" stop-color="#c7cce9" stop-opacity="0.4"/><stop offset="0.95" stop-color="#5764ac" stop-opacity="0.4"/></linearGradient></defs><title>astro-astro</title><rect width="1400" height="1443.44" style="fill:url(#a)"/><path d="M700.14,390c-79.1,0-135.69,24.91-174.55,59.1a268.57,268.57,0,0,0,344.48-3.34C832.79,413.92,778.55,390,700.14,390Z" style="fill:url(#b)"/><path d="M822.36,821.89c-.38.13-.79.26-1.17.36a5.42,5.42,0,0,1-.72.19Z" style="fill:#2d2e83"/><path d="M667.22,726.77h0l0,0Zm120.39-59.42h0v0L780,682.57l7.65-15.21h0Z" style="fill:#582b18"/><path d="M804.23,627.94c-6.29-2.5-12.58-5-19-7.18-23.6-8-47.74-13.22-74.16-13.53-31.85.57-63.24,9-93.58,22a12.26,12.26,0,0,0-5.71,5.18c-6,10,2.18,25.38,13.81,25.74,2.11.07,2.83.85,3.63,2.49,3.11,6.35,6.14,12.75,9.6,18.91a16.31,16.31,0,0,1,2,12.44,23.09,23.09,0,0,0,1.2,15.33c1.92,4.1,5.5,5.91,9.45,4.29,2.72-1.12,3.48,0,4.53,2.08q18.39,36.75,36.94,73.4c1.94,3.83,4,7.5,2.94,12.05a7.84,7.84,0,0,0,.19,3.11c.68,3.53,2.39,5.24,6.06,5.53,1.42.11,1.65,1,2.19,1.83,4.62,6.63,12.91,6,16.61-1.21q4.83-9.45,9.58-19a4.64,4.64,0,0,1,2.25-2.38c4-1.91,5.42-4.64,4.75-9.12a5,5,0,0,1,.46-3.29q13.15-26.07,26.26-52.2a2.06,2.06,0,0,1,2.64-1.34c4.1.77,6.29-.62,7.47-4.58a21.92,21.92,0,0,0,.2-9.9c-.25-1.61-.73-3.18.13-4.87q10.66-21,21.21-42.08a2.14,2.14,0,0,1,2.34-1.52c4.85.26,8.57-2.06,11.73-5.5C818.49,645.37,815.76,632.51,804.23,627.94ZM692.47,777.64c-5.65-11.32-11.28-22.63-17.09-33.87-1.34-2.57-2.24-5.3-3.47-7.9-.17-.36-.46-.64-.19-1.1,1-1.76,5.87-2.07,6.87-.36a4.75,4.75,0,0,0,3.46,2.37,28.36,28.36,0,0,0,6.18.74c4.12-.17,7.9.22,10.59,3.85a1.91,1.91,0,0,0,.78.5c2.07,1,4.52,1.25,5.69,3.88a29.42,29.42,0,0,1,2.63,11.37c-.51,9.43-4.4,16.46-12.24,21.2C694.29,779.16,693.36,779.39,692.47,777.64Zm68.92-58.53c-2.67,5.84-5.74,11.5-8.83,17.14s-5.87,11.46-8.4,17.36c-1.25,2.91-2.66,2.84-5,1.61a25.16,25.16,0,0,1-13.1-21.94c-.7-14,11.94-25.07,23.76-25.21,1.36,0,2.53,0,3.55,1.34a6.06,6.06,0,0,0,3.82,1.87C762.15,712.14,763.5,714.46,761.39,719.11ZM790,662.33a22.58,22.58,0,0,0-2.24,4.34c-.06.21-.12.43-.17.65h0a.19.19,0,0,1,.07.06h-.07q-3.83,7.6-7.65,15.21t-7.68,15.2a8.47,8.47,0,0,0-.88,5.07,45.25,45.25,0,0,1-.29,12.46c-.28,1.6-.57,3.54-2.92,3.28-2.17-.24-1.94-2-2-3.58-.18-4.39-2.6-6.53-7.43-6.5-2.34,0-4.52.34-3.89-3.31.29-1.63-1.52-1-2.35-1.08-11.57-.93-23.34,6.32-28,17.2A28.86,28.86,0,0,0,738,759.12c2.19,1.12,2.53,1.92,1.37,4.1-.18.32-.35.66-.52,1l-.5.93c-2.65,5-5,10.13-4.53,16.25a4.06,4.06,0,0,1-2.92,4,2.67,2.67,0,0,1-1.1.17c-1.36.09-2.21-1.05-3.06-2.06-.42-.47-.79-1-1.39-1.74a5.64,5.64,0,0,0,.46,4.77c1,1.56.67,2.84-.09,4.32-2.88,5.56-5.69,11.14-8.48,16.73-1,2-2.22,3.85-4.59,3.78a4.79,4.79,0,0,1-1.11-.09c-3.06-.58-4-3-4.5-5.68-.24-1.34-.14-2.73-1.13-3.94-.63,1.81-.67,4.45-2.89,4.34a3,3,0,0,1-.94-.1c-2.48-.59-2.28-3.53-2.19-5.62.25-5.53-.32-10.75-3.7-15.23l-.31-.39a4,4,0,0,0-.34-.4q-.35-.42-.72-.81c8.93-4.24,14.52-11,16.53-20.48a27.72,27.72,0,0,0-1.76-17.72c-.91-2-2.08-3.75-.77-6.06a2.9,2.9,0,0,0-.56-3c-.65,1.64-.62,3.88-2.75,4.13s-3.7-1-5-2.66a10.61,10.61,0,0,0-9.34-4.1c-2,.11-4,.15-5.94.15-5.25,0-5.94-1-4.34-5.91-3.64.35-7,1.59-10.4,2.7-3.18.57-2.22-2.45-3.27-3.75h0C665,724.21,664,721,662.54,718q-.12-.3-.27-.6c-.84-1.88-2.2-3.54-2.57-5.65-2-2.08-2.41-4.67-2.37-7.4-.85-.8-.44-2.27-1.71-3a36.2,36.2,0,0,1-.23,4.48c-.49,3-2.5,4.44-5.43,4.64-2.75.19-3.89-1.76-4.55-3.92a30.25,30.25,0,0,1-1-12.08c.73-6.8,0-13.2-3.56-19.28-1.38-2.36-2.6-4.81-3.81-7.28s-2.38-5-3.64-7.46c-.58-1.15-1-2.08.57-2.77,5.59-2.51,11.16-5.06,17-7a9.23,9.23,0,0,1,2.15,0C647,655,640.24,661.71,637,667.88a81.22,81.22,0,0,1,22.36-18.16c8.38-4.49,17.38-6.81,26.73-7.93a229.27,229.27,0,0,1,25.26-1.7c19.23-.16,36.07,6.53,51.31,17.75,7,5.11,14.54,8.47,23.21,9.16.3,0,.61,0,.91,0-5.67-2.24-11.87-3.18-16.91-6.92-4.58-3.39-9.16-6.78-13.67-10.25-1.2-.91-2.84-1.24-3.84-3,3-.54,5.34.84,7.7,1.73a20.64,20.64,0,0,0,8.79,1.64c3.19-.18,6,1.39,8.93,2.28A77.52,77.52,0,0,1,788.45,657C791.9,658.62,791.91,659,790,662.33Zm17.8-13.49c-3.2,6.24-8.34,7.61-14.59,4.42-18.12-9.24-37.46-14.3-57.55-16.84a185.81,185.81,0,0,0-49.86.32c-19.25,2.78-37.89,7.86-55.25,16.93-4.71,2.47-8.83,1.74-12.28-2.29a15.37,15.37,0,0,1-3.48-11.67,7.27,7.27,0,0,1,4.68-6.2c16.49-7.08,33.36-12.93,51-16.39,10.74-2.11,21.42-4.39,32.4-4.8,1,0,2.08,0,3.11,0a29.7,29.7,0,0,1,7.38,0h5.9c11.72.08,23.2,2.07,34.62,4.49a275.28,275.28,0,0,1,45.89,14.29,35,35,0,0,1,5,2.49C811,637.37,810.84,642.93,807.82,648.84Z" style="fill:#871b33"/><path d="M659.73,711.75h0l0,0Zm7.52,15h0l0,0S667.25,726.79,667.25,726.77Zm120.36-59.45h0a1.33,1.33,0,0,0-.81-.3l.81.32v0L780,682.57l7.65-15.21h.07Z" style="fill:#fab62b"/><path d="M653.1,650.6C647,655,640.24,661.71,637,667.88c-1.21-2.49-2.38-5-3.64-7.46-.57-1.15-1-2.08.57-2.77,5.59-2.5,11.16-5.06,17-7A9.3,9.3,0,0,1,653.1,650.6Z" style="fill:#e9415f"/><path d="M698.14,678.9s0,.07,0,.1a.14.14,0,0,0,0-.09Zm-1.31-5.82,0,0c.07.13.12.26.18.39C696.94,673.36,696.89,673.22,696.83,673.08Z" style="fill:#f0e027"/><path d="M786.8,667c-.29,0-.6,0-.9,0-8.67-.69-16.25-4-23.21-9.16-15.24-11.22-32.07-17.91-51.31-17.75a229.27,229.27,0,0,0-25.26,1.7,74.61,74.61,0,0,0-26.73,7.93A81.37,81.37,0,0,0,637,667.88c1.21,2.47,2.43,4.92,3.81,7.28,3.54,6.08,4.29,12.48,3.56,19.28a30.25,30.25,0,0,0,1,12.08c.67,2.16,1.8,4.11,4.55,3.92,2.92-.2,4.94-1.63,5.43-4.64a36.2,36.2,0,0,0,.23-4.48c1.27.76.86,2.23,1.71,3,0,2.73.41,5.31,2.37,7.4h0v0l0,0c.37,2.11,1.73,3.76,2.57,5.65q.15.3.27.6c1.44,3,2.44,6.21,4.68,8.77h0s0,0,0,0l0,0c1,1.29.08,4.32,3.26,3.75,3.4-1.11,6.77-2.35,10.4-2.71-1.6,5-.91,5.91,4.34,5.92,2,0,4,0,5.94-.15a10.66,10.66,0,0,1,9.34,4.1c1.32,1.62,2.93,2.91,5,2.66s2.09-2.49,2.75-4.13a2.88,2.88,0,0,1,.56,3c-1.31,2.3-.14,4.09.77,6.06A27.72,27.72,0,0,1,711.35,763c-2,9.5-7.6,16.24-16.53,20.48.25.26.5.53.73.81s.23.27.34.41l.3.38c3.38,4.48,3.95,9.7,3.7,15.22-.09,2.1-.28,5,2.19,5.64a3.26,3.26,0,0,0,.94.09c2.22.11,2.26-2.53,2.88-4.34,1,1.21.9,2.6,1.14,3.94.46,2.63,1.44,5.11,4.5,5.68a4.3,4.3,0,0,0,1.11.09c2.38.07,3.57-1.73,4.59-3.78,2.79-5.59,5.6-11.17,8.48-16.73.76-1.48,1.12-2.76.08-4.32a5.67,5.67,0,0,1-.45-4.77c.6.76,1,1.26,1.39,1.74.85,1,1.7,2.15,3.06,2.07a2.71,2.71,0,0,0,1.1-.19,4.06,4.06,0,0,0,2.93-4c-.49-6.11,1.87-11.22,4.52-16.26.17-.3.33-.61.5-.92l.52-1c1.16-2.17.82-3-1.37-4.1a28.86,28.86,0,0,1-13.53-37.81c4.7-10.88,16.47-18.13,28-17.2.83.06,2.63-.55,2.35,1.08-.63,3.64,1.55,3.32,3.89,3.31,4.83,0,7.25,2.11,7.43,6.49.07,1.58-.16,3.35,2,3.59,2.35.27,2.64-1.68,2.91-3.28a44.86,44.86,0,0,0,.3-12.46,8.53,8.53,0,0,1,.88-5.07q3.86-7.59,7.68-15.2l7.64-15.21v0Zm-60.22,23.82c-4,8.06-13.29,12.21-22.4,16.26-1.26.55-2.52,1.11-3.76,1.68a12.55,12.55,0,0,1-5.24,1.17,14,14,0,0,1-7.19-2.12c-4.75-2.84-8.94-8.41-11.38-14.63h0a31.42,31.42,0,0,1-2.18-9.42,26.93,26.93,0,0,1,9.12-22.17c3.09-2.73,9.57-3.19,14.11-2.25,3.45.72,5.79,2.2,6.77,4.27,1.07,2.28-.47,4.63-1.95,6.92-1.09,1.67-2.32,3.56-2.39,5.17-.43,9.81,1.52,11,1.54,11,1,.18,5.07-3.83,8.67-14.44,0-.08.5-1.67,1-3.29l1.06-3.52a3.69,3.69,0,0,1,3.72-2.72c4.39.2,10.59,8.23,11.7,12.78a27.28,27.28,0,0,1,.77,6.44A19.87,19.87,0,0,1,726.58,690.84Z" style="fill:#f0e027"/><path d="M698.15,678.91a.14.14,0,0,1,0,.09s0-.07,0-.1Z" style="fill:#f0e027"/><path d="M697,673.51c-.06-.13-.11-.26-.18-.39l0,0C696.89,673.22,696.94,673.36,697,673.51Z" style="fill:#f0e027"/><path d="M807.82,648.84c-3.2,6.24-8.34,7.61-14.59,4.42C775.1,644,755.77,639,735.68,636.42a185.81,185.81,0,0,0-49.86.31c-19.25,2.78-37.89,7.87-55.24,16.94-4.72,2.46-8.84,1.74-12.29-2.29a15.42,15.42,0,0,1-3.49-11.67,7.31,7.31,0,0,1,4.68-6.2c16.5-7.08,33.37-12.92,51-16.4,10.74-2.11,21.42-4.38,32.4-4.79,1,0,2.08,0,3.11,0a29.23,29.23,0,0,1,7.38,0h5.89c11.73.08,23.22,2.07,34.63,4.49a275,275,0,0,1,45.89,14.29,35,35,0,0,1,5,2.49C811,637.37,810.84,642.93,807.82,648.84Z" style="fill:#c1b121"/><path d="M761.39,719.11c-2.67,5.85-5.74,11.5-8.82,17.14s-5.88,11.46-8.41,17.36c-1.25,2.91-2.66,2.84-5,1.61a25.14,25.14,0,0,1-13.1-21.94c-.7-14,11.94-25.07,23.76-25.21,1.36,0,2.53,0,3.55,1.33a6,6,0,0,0,3.82,1.89C762.15,712.13,763.51,714.46,761.39,719.11Z" style="fill:#e9415f"/><path d="M705.29,745.75c-1.17-2.63-3.63-2.85-5.69-3.88a2,2,0,0,1-.78-.5c-2.69-3.63-6.47-4-10.59-3.85a28.27,28.27,0,0,1-6.18-.73,4.86,4.86,0,0,1-3.47-2.38c-1-1.71-5.84-1.39-6.86.36-.27.46,0,.74.2,1.1,1.22,2.6,2.12,5.33,3.46,7.91,5.81,11.22,11.45,22.54,17.09,33.86.88,1.75,1.82,1.52,3.21.68,7.85-4.74,11.73-11.77,12.24-21.21A29.42,29.42,0,0,0,705.29,745.75Zm-22.5,8.38a1.79,1.79,0,0,1-1.75-1.47c-.86-3.21-2.7-6-4.26-8.83-1-1.86-.54-3.34,1.1-4.18,6.47-3.33,11.6-.08,12.82,6.94C690.82,749.84,686,754.43,682.79,754.13Z" style="fill:#e9415f"/><path d="M787.65,667.37h0Z" style="fill:#fab62b"/><path d="M790,662.33a22.37,22.37,0,0,0-2.24,4.35c-.06.2-.12.42-.17.64a1.33,1.33,0,0,0-.81-.3c-5.66-2.24-11.86-3.18-16.9-6.92-4.58-3.39-9.15-6.78-13.67-10.25-1.2-.91-2.84-1.25-3.84-3,3-.54,5.34.84,7.7,1.73a20.83,20.83,0,0,0,8.79,1.65c3.19-.19,6,1.38,8.92,2.27A77.13,77.13,0,0,1,788.45,657C791.9,658.62,791.91,659,790,662.33Z" style="fill:#e9415f"/><path d="M787.61,667.32v0h0l-.81-.32A1.33,1.33,0,0,1,787.61,667.32Z" style="fill:#fab62b"/><path d="M667.26,726.81l0,0h0S667.26,726.79,667.26,726.81Z" style="fill:#faf8f1"/><path d="M659.73,711.79l0,0h0Z" style="fill:#faf8f1"/><path d="M659.73,711.79l0,0h0Z" style="fill:#faf8f1"/><path d="M667.26,726.81l0,0h0S667.26,726.79,667.26,726.81Z" style="fill:#faf8f1"/><path d="M690.7,746.59c.12,3.25-4.74,7.84-7.91,7.54a1.79,1.79,0,0,1-1.75-1.47c-.86-3.21-2.7-6-4.26-8.83-1-1.86-.54-3.34,1.1-4.18C684.35,736.32,689.48,739.57,690.7,746.59Z" style="fill:#871b33"/><path d="M698.15,678.91a.14.14,0,0,1,0,.09s0-.07,0-.1Z" style="fill:#e9415f"/><path d="M680.77,674.46c.34-.49.69-1,1.06-1.41C681.46,673.5,681.11,674,680.77,674.46Z" style="fill:#e9415f"/><path d="M683.75,670.92l.24-.22c-.14.12-.27.26-.4.39Z" style="fill:#e9415f"/><path d="M697,673.51c-.06-.13-.11-.26-.18-.39l0,0C696.89,673.22,696.94,673.36,697,673.51Z" style="fill:#e9415f"/><path d="M696.83,673.08l0,0c.07.13.12.26.18.39C696.94,673.36,696.89,673.22,696.83,673.08Zm1.31,5.82s0,.07,0,.1a.14.14,0,0,0,0-.09Z" style="fill:#871b34"/><path d="M727.77,675.49c-1.11-4.55-7.31-12.58-11.7-12.78a3.69,3.69,0,0,0-3.72,2.72L711.29,669c-.49,1.62-1,3.21-1,3.29-3.6,10.61-7.66,14.62-8.67,14.44,0,0-2-1.16-1.54-11,.07-1.61,1.3-3.5,2.39-5.17,1.48-2.29,3-4.64,1.95-6.92-1-2.07-3.32-3.55-6.77-4.27-4.54-.94-11-.48-14.11,2.25a26.93,26.93,0,0,0-9.12,22.17,31.42,31.42,0,0,0,2.18,9.42h0c2.44,6.22,6.63,11.79,11.38,14.63a14,14,0,0,0,7.19,2.12,12.55,12.55,0,0,0,5.24-1.17c1.24-.57,2.5-1.13,3.76-1.68,9.11-4.05,18.45-8.2,22.4-16.26a19.87,19.87,0,0,0,2-8.91A27.28,27.28,0,0,0,727.77,675.49Zm-25.12,28.17c-1.27.56-2.54,1.12-3.8,1.7a9.15,9.15,0,0,1-8.92-.76c-6-3.61-11.21-12.86-11.75-21.08a23.72,23.72,0,0,1,.15-4.7h0A23.2,23.2,0,0,1,686,664.42c1.25-1.1,4.13-1.75,7.12-1.75a19.1,19.1,0,0,1,3.73.36c2.15.45,3.7,1.27,4.12,2.18.1.52-1,2.24-1.69,3.27a22.62,22.62,0,0,0-2.49,4.6c.06.14.11.28.16.43-.06-.13-.11-.26-.18-.39a8.66,8.66,0,0,0-.48,2.43c-.29,6.62.38,11,2.06,13.2a4,4,0,0,0,2.55,1.63,3.35,3.35,0,0,0,.71.07c4.74,0,9.37-8.63,12.22-17,0-.05,0-.06,1-3.41.49-1.65,1-3.31,1-3.39a.78.78,0,0,1,.08-.18c1.73.1,7.15,5.95,8.12,9.91a24.41,24.41,0,0,1,.45,2.44,21.48,21.48,0,0,1,.21,3.11C724.77,693.83,714.52,698.38,702.65,703.66Zm-4.5-24.75a.14.14,0,0,1,0,.09s0-.07,0-.1Z" style="fill:#871b33"/><path d="M724.56,678.82a24.41,24.41,0,0,0-.45-2.44c-1-4-6.39-9.81-8.12-9.91a.78.78,0,0,0-.08.18c0,.08-.53,1.74-1,3.39-1,3.35-1,3.36-1,3.41-2.85,8.37-7.48,17-12.22,17a3.35,3.35,0,0,1-.71-.07,4,4,0,0,1-2.55-1.63c-1.68-2.21-2.35-6.58-2.06-13.2a8.66,8.66,0,0,1,.48-2.43l0,0a22.62,22.62,0,0,1,2.49-4.6c.68-1,1.79-2.75,1.69-3.27-.42-.91-2-1.73-4.12-2.18a19.1,19.1,0,0,0-3.73-.36c-3,0-5.87.65-7.12,1.75a23.2,23.2,0,0,0-7.71,14.39h0a23.72,23.72,0,0,0-.15,4.7c.54,8.22,5.71,17.47,11.75,21.08a9.15,9.15,0,0,0,8.92.76c1.26-.58,2.53-1.14,3.8-1.7,11.87-5.28,22.12-9.83,22.12-21.73A21.48,21.48,0,0,0,724.56,678.82Zm-43.79-4.36c.34-.49.69-1,1.06-1.41C681.46,673.5,681.11,674,680.77,674.46Zm2.82-3.37.16-.17.24-.22C683.85,670.82,683.72,671,683.59,671.09Z" style="fill:#e9415f"/><path d="M890.46,740.82q-1.76,4.93-3.83,9.72Q888.67,745.76,890.46,740.82Z" style="fill:#00a19a"/><g style="opacity:0.61"><path d="M555.61,786.92c-1.24-2-156.16-254.26,144.28-189.91C694.35,596.09,505.25,566.09,555.61,786.92Z" style="fill:#6169af"/><path d="M810,654.64c-3.16,3.44-6.88,5.76-11.73,5.5a2.14,2.14,0,0,0-2.34,1.52q-10.56,21.06-21.21,42.08c-.86,1.69-.38,3.26-.13,4.87a21.92,21.92,0,0,1-.2,9.9c-1.18,4-3.37,5.35-7.47,4.58a2.06,2.06,0,0,0-2.64,1.34q-13.08,26.13-26.26,52.2a5,5,0,0,0-.46,3.29c.67,4.48-.71,7.21-4.75,9.12a4.64,4.64,0,0,0-2.25,2.38q-4.75,9.5-9.58,19c-3.7,7.26-12,7.84-16.61,1.21-.54-.79-.77-1.72-2.19-1.83-3.67-.29-5.38-2-6.06-5.53a7.84,7.84,0,0,1-.19-3.11c1.08-4.55-1-8.22-2.94-12.05Q674.42,752.4,656,715.66c-1-2.09-1.81-3.2-4.53-2.08-4,1.62-7.53-.19-9.45-4.29a23.09,23.09,0,0,1-1.2-15.33,16.31,16.31,0,0,0-2-12.44c-3.46-6.16-6.49-12.56-9.6-18.91-.8-1.64-1.52-2.42-3.63-2.49-11.63-.36-19.77-15.72-13.81-25.74a12.26,12.26,0,0,1,5.71-5.18c30.34-12.92,61.73-21.4,93.58-22,26.42.31,50.56,5.5,74.16,13.53,6.4,2.18,12.69,4.68,19,7.18C815.76,632.51,818.49,645.37,810,654.64Z" style="fill:#6169af"/><path d="M820.47,822.44l1.89-.55c-.38.13-.79.26-1.17.36A5.42,5.42,0,0,1,820.47,822.44Z" style="fill:#6169af"/><path d="M860.39,773.55a13.93,13.93,0,1,1-13.92-13.93A13.92,13.92,0,0,1,860.39,773.55Z" style="fill:#6169af"/><path d="M870.58,718.27a24.11,24.11,0,1,1-24.11-24.11A24.11,24.11,0,0,1,870.58,718.27Z" style="fill:#6169af"/><path d="M890.46,740.82q-1.76,4.93-3.83,9.72Q888.67,745.76,890.46,740.82Z" style="fill:#6169af"/></g><path d="M963.3,756.45c.45-1.53.94-3.06,1.42-4.61,1.41-4.43,2.9-8.89,4.22-13.41v0c19.31-19.29,13.63-22.75,13.63-49.93s-18-29.54-18-29.54c-5-33.52-11.53-69.37-19.53-84.92a.07.07,0,0,1,0,.06c-6.34-29.82-23.25-77.37-62.4-116.7a285.55,285.55,0,0,1-369.41,3.56c-33.33,34.43-51,75.78-57.15,110.49-.17-1.5-20.65,87.51-20.65,87.51s-18,2.36-18,29.54-5.68,30.64,13.63,49.95l0-.85c1.75,6.19,3.75,12.28,5.77,18.29.12.37.23.73.36,1.09-8.31,5.19-7.94,24.33-5,46,3,22.12,25.25,11.38,25.25,11.38S473.75,846.69,489,863a42.42,42.42,0,0,0,14.25,10.11q4.56,2,9.29,3.83c-5,20.32-1.21,46.44-1.21,46.44-19.82,0-21.06,40.88-22.64,42.94-38.83,51,84.14,87.18,223.5,87.18s209.74-30.66,224.68-56.22-.39-33.81,0-35.77c7.17-35.86-22.41-37.35-22.41-37.35V887.22c0-9.93-2.1-16.74-4.26-21.11a69.92,69.92,0,0,0,18.53-18.29,152.82,152.82,0,0,0,16.76-33.1s22.58,10,24.88-12.16S972.34,760.85,963.3,756.45Zm-378.67-191,.24.06c1.19.3,2.38.62,3.57.89s2.28.58,3.4.85c2.13.51,4.25,1,6.38,1.5,2.43.54,4.86,1.08,7.27,1.56s4.66,1,7,1.41a453.88,453.88,0,0,0,172.44-.27h0c3.08-.6,6.15-1.22,9.21-1.88.66-.17,1.32-.3,2-.45q5.61-1.25,11.17-2.63a63.17,63.17,0,0,1,70,29.54c.79,1.34,1.53,2.68,2.27,4,0,0,.06.11.09.15.45.81.87,1.64,1.3,2.46.34.62.63,1.22,1,1.83.51,1,1,2,1.45,3,.21.41.4.79.57,1.19.47,1,.92,1.92,1.36,2.89.67,1.47,1.33,3,1.94,4.45s1.3,3.15,1.89,4.74c.56,1.42,1.09,2.85,1.58,4.28.29.78.57,1.59.83,2.4.08.25.17.5.25.75q.39,1.13.72,2.25c.19.58.39,1.17.56,1.74.31,1.07.63,2.13.94,3.21.17.58.34,1.15.48,1.73.4,1.44.79,2.91,1.13,4.37.29,1.24.6,2.5.87,3.75.09.43.19.85.27,1.28.29,1.28.54,2.55.77,3.83s.54,2.84.75,4.29a3.29,3.29,0,0,1,.08.47c.24,1.38.43,2.78.62,4.19,0,0,0,0,0,.06.21,1.51.4,3,.55,4.57.13,1.17.26,2.34.34,3.52a4,4,0,0,1,.05.46l.12,1.51c.09,1.26.17,2.49.24,3.74s.12,2.33.15,3.49c0,.57,0,1.15,0,1.7,0,1.39.06,2.79.06,4.19a172.54,172.54,0,0,1-4.74,40.28c-.36,1.47-.73,2.94-1.13,4.41-.21.91-.47,1.82-.74,2.72l-.25.88c-.24.89-.51,1.77-.8,2.65s-.56,1.87-.89,2.81c-.49,1.53-1,3.06-1.55,4.57q-1.76,4.93-3.83,9.72c-.48,1.12-1,2.25-1.48,3.36s-1,2.14-1.5,3.21a.07.07,0,0,0,0,.06q-.79,1.62-1.59,3.21a3.57,3.57,0,0,0-.17.34c-.51,1-1,1.92-1.51,2.87-.94,1.77-1.89,3.52-2.91,5.26-.41.68-.82,1.36-1.19,2a174.05,174.05,0,0,1-10.77,15.91c-.59.79-1.19,1.55-1.81,2.34-1.1,1.4-2.23,2.81-3.38,4.17l-.57.68c-.58.69-1.16,1.37-1.77,2-.76.89-1.55,1.78-2.38,2.66s-1.61,1.76-2.42,2.64c-1.92,2-3.87,4-5.89,5.91-.47.45-.94.87-1.41,1.3A62.47,62.47,0,0,1,823,821.7l-.66.19c-.38.13-.79.26-1.17.36a5.42,5.42,0,0,1-.72.19c-.62.19-1.23.36-1.87.53-4.36,1.22-8.76,2.36-13.21,3.45-3.61.9-7.28,1.72-10.95,2.53-.32.09-.64.15-1,.21-1.76.39-3.53.75-5.3,1.11q-3,.6-5.93,1.17c-2,.38-4,.74-6,1.08-3,.53-6,1-9,1.5s-6,.88-9.06,1.29c-1.91.26-3.85.49-5.77.72-2.12.28-4.27.51-6.42.73s-4.08.42-6.12.61q-10,1-20.23,1.41c-7.16.36-14.4.53-21.67.53q-10.25,0-20.36-.47-13.6-.57-27-2h0c-2.13-.21-4.28-.47-6.4-.72s-4.06-.49-6.11-.77c-1.49-.19-3-.4-4.46-.62s-2.88-.4-4.3-.63c-1.64-.24-3.27-.51-4.89-.76-10.08-1.67-20-3.64-29.86-6-1.77-.39-3.55-.82-5.32-1.27-1.4-.34-2.81-.7-4.21-1.06-.93-.24-1.89-.49-2.83-.75q-5.41-1.42-10.76-3l-3.91-1.15-.68-.22a63,63,0,0,1-24.38-14.48c-.46-.47-.93-.91-1.4-1.38q-4.73-4.76-9-9.85c-.55-.66-1.12-1.32-1.66-2-.91-1.08-1.78-2.16-2.63-3.27-.68-.85-1.35-1.7-2-2.58s-1.34-1.78-2-2.67-1.3-1.84-1.94-2.75-1.4-2-2.08-3.06c-1.17-1.77-2.32-3.55-3.43-5.36-2.33-3.83-4.54-7.75-6.59-11.76-1-2-2-4-3-6.09a.52.52,0,0,1-.07-.15c-.53-1.19-1.08-2.38-1.59-3.59a171.59,171.59,0,0,1-9.61-29.12c-.15-.63-.3-1.29-.43-1.93-.23-1-.45-2.08-.66-3.13s-.38-1.87-.53-2.81c-.13-.56-.23-1.14-.32-1.71q-.31-1.72-.57-3.45a175.32,175.32,0,0,1-2-26.29c0-1.46,0-3,.06-4.42a6.11,6.11,0,0,1,0-.74c0-1.33.08-2.66.14-4a1.89,1.89,0,0,0,0-.41c.05-1.25.14-2.5.25-3.76,0-.62.09-1.24.14-1.85.12-1.24.24-2.45.37-3.66.14-1.49.34-2.93.53-4.4.17-1.27.36-2.55.55-3.81.1-.66.2-1.3.33-2,0-.21.07-.43.12-.65.43-2.55.94-5.1,1.49-7.6.25-1.23.55-2.47.85-3.69q.63-2.73,1.4-5.39c.26-.93.51-1.87.81-2.79.2-.68.38-1.36.62-2,.34-1.16.72-2.33,1.11-3.48.46-1.43.95-2.85,1.48-4.26.41-1.12.81-2.22,1.24-3.33.55-1.41,1.1-2.79,1.68-4.15.25-.64.53-1.28.83-1.93A167.81,167.81,0,0,1,516,593.14c.12-.22.25-.41.37-.62.24-.38.48-.74.71-1.13C531.55,569.25,558.88,558.87,584.63,565.43ZM460.56,615.3a278.11,278.11,0,0,1,61.7-71.08c.53.23,1.06.47,1.59.68a172.2,172.2,0,0,0-53.38,124.82c0,1.32,0,2.64.06,3.94C466.56,665.38,463.19,639.84,460.56,615.3ZM899.72,984.06q-6.59,3.63-13.32,7A368.89,368.89,0,0,1,777,1025.33a432.09,432.09,0,0,1-102.46,2.82A514.42,514.42,0,0,1,588.64,1013a507.09,507.09,0,0,1-58.29-19.12c-7.59-3-15.22-6.14-22.52-9.81a4.13,4.13,0,0,1-1.47-5.6A4.19,4.19,0,0,1,512,977l.34.17c2.7,1.28,5.4,2.54,8.13,3.75l3.67,1.6,1,.42.11.05h0l.17.07.13.06,2.08.86c3.4,1.41,6.82,2.76,10.26,4.08a517,517,0,0,0,61.42,19.2,493.44,493.44,0,0,0,86.46,13.56,413.78,413.78,0,0,0,101.61-5.48A359.9,359.9,0,0,0,895.59,977C900.21,974.44,904.34,981.52,899.72,984.06ZM716.07,932.17c-130.12,0-173.17-29.69-186.82-41.08a15.88,15.88,0,0,1-5.9-10.09c53.22,19.24,117.78,29.79,174.66,29.79,64.06,0,140.77-13.38,198.81-37.5q3.34-1.39,6.53-3.09C918,893.89,841,932.17,716.07,932.17ZM904.32,809q-7.07,5.93-14.4,11.49c-34,25.88-73.15,45.14-114.89,54.73-35.61,8.18-72.56,9.42-108.74,4.64a386.88,386.88,0,0,1-91.41-24A441.8,441.8,0,0,1,511.64,825a262.78,262.78,0,0,1-23.25-15.12c-2.3-1.73-3.49-4.55-1.91-7.28,1.34-2.27,5-3.63,7.28-1.9l.36.26c2.95,1.88,5.73,4,8.65,6,6.29,4.15,12.71,8.06,19.23,11.81a424.12,424.12,0,0,0,64.21,30.16c29.28,10.85,60.06,18.58,91,21.65,35.92,3.57,72.31,1.06,107.14-8.59,41.49-11.49,79.57-32.85,112.49-60.43,2.21-1.84,5.34-2.17,7.52,0C906.22,803.38,906.53,807.15,904.32,809Zm22.34-126.41c.34-4.23.49-8.53.49-12.87a172.15,172.15,0,0,0-53.87-125.27l.48-.23A278.83,278.83,0,0,1,938.86,621C935.57,646.56,931.49,674,926.66,682.59Z" style="fill:url(#c)"/><path d="M900.5,678.31c0-.55,0-1.13,0-1.7,0-1.16-.09-2.32-.15-3.49s-.15-2.48-.24-3.74l-.12-1.51a4,4,0,0,0-.05-.46c-.08-1.18-.21-2.35-.34-3.52-.15-1.53-.34-3.06-.55-4.57,0,0,0,0,0-.06-.19-1.41-.4-2.81-.62-4.19a3.29,3.29,0,0,0-.08-.47c-.24-1.45-.47-2.87-.75-4.29s-.48-2.55-.77-3.83c-.08-.43-.18-.85-.27-1.28-.27-1.25-.58-2.51-.87-3.75-.36-1.46-.75-2.93-1.13-4.37-.14-.58-.31-1.15-.48-1.73-.31-1.08-.63-2.14-.94-3.21-.17-.57-.37-1.16-.56-1.74q-.35-1.12-.72-2.25c-.08-.25-.17-.5-.25-.75-.26-.81-.54-1.62-.83-2.4-.49-1.43-1-2.86-1.58-4.28-.59-1.59-1.23-3.17-1.89-4.74s-1.27-3-1.94-4.45c-.44-1-.89-1.93-1.36-2.89-.17-.4-.36-.78-.57-1.19-.45-1-.94-2-1.45-3-.32-.61-.61-1.21-1-1.83-.43-.82-.85-1.65-1.3-2.46,0,0-.06-.11-.09-.15-.74-1.36-1.48-2.7-2.27-4a63.17,63.17,0,0,0-70-29.54q-5.56,1.39-11.17,2.63c-.66.15-1.32.28-2,.45-3.06.66-6.13,1.28-9.21,1.88h0a453.88,453.88,0,0,1-172.44.27c-2.34-.42-4.67-.9-7-1.41s-4.84-1-7.27-1.56c-2.13-.48-4.25-1-6.38-1.5-1.12-.27-2.28-.55-3.4-.85s-2.38-.59-3.57-.89l-.24-.06c-25.75-6.56-53.08,3.82-67.54,26-.23.39-.47.75-.71,1.13-.12.21-.25.4-.37.62a167.81,167.81,0,0,0-10.87,21.08c-.3.65-.58,1.29-.83,1.93-.58,1.36-1.13,2.74-1.68,4.15-.43,1.11-.83,2.21-1.24,3.33-.53,1.41-1,2.83-1.48,4.26-.39,1.15-.77,2.32-1.11,3.48-.24.66-.42,1.34-.62,2-.3.92-.55,1.86-.81,2.79q-.76,2.66-1.4,5.39c-.3,1.22-.6,2.46-.85,3.69-.55,2.5-1.06,5-1.49,7.6-.05.22-.08.44-.12.65-.13.66-.23,1.3-.33,2-.19,1.26-.38,2.54-.55,3.81-.19,1.47-.39,2.91-.53,4.4-.13,1.21-.25,2.42-.37,3.66-.05.61-.1,1.23-.14,1.85-.11,1.26-.2,2.51-.25,3.76a1.89,1.89,0,0,1,0,.41c-.06,1.32-.12,2.65-.14,4a6.11,6.11,0,0,0,0,.74c0,1.47-.06,3-.06,4.42a175.32,175.32,0,0,0,2,26.29q.26,1.73.57,3.45c.09.57.19,1.15.32,1.71.15.94.34,1.88.53,2.81s.43,2.09.66,3.13c.13.64.28,1.3.43,1.93a171.59,171.59,0,0,0,9.61,29.12c.51,1.21,1.06,2.4,1.59,3.59a.52.52,0,0,0,.07.15c1,2.07,1.93,4.09,3,6.09,2,4,4.26,7.93,6.59,11.76,1.11,1.81,2.26,3.59,3.43,5.36.68,1,1.36,2,2.08,3.06s1.28,1.83,1.94,2.75,1.32,1.78,2,2.67,1.3,1.73,2,2.58c.85,1.11,1.72,2.19,2.63,3.27.54.68,1.11,1.34,1.66,2q4.32,5.1,9,9.85c.47.47.94.91,1.4,1.38a63,63,0,0,0,24.38,14.48l.68.22,3.91,1.15q5.36,1.56,10.76,3c.94.26,1.9.51,2.83.75,1.4.36,2.81.72,4.21,1.06,1.77.45,3.55.88,5.32,1.27,9.82,2.33,19.78,4.3,29.86,6,1.62.25,3.25.52,4.89.76,1.42.23,2.85.45,4.3.63s3,.43,4.46.62c2.05.28,4.07.54,6.11.77s4.27.51,6.4.72h0q13.4,1.41,27,2,10.13.48,20.36.47c7.27,0,14.51-.17,21.67-.53q10.19-.45,20.23-1.41c2-.19,4.08-.38,6.12-.61s4.3-.45,6.42-.73c1.92-.23,3.86-.46,5.77-.72,3-.41,6.06-.85,9.06-1.29s6-1,9-1.5c2-.34,4-.7,6-1.08s4-.77,5.93-1.17c1.77-.36,3.54-.72,5.3-1.11.32-.06.64-.12,1-.21,3.67-.81,7.34-1.63,10.95-2.53,4.45-1.09,8.85-2.23,13.21-3.45.64-.17,1.25-.34,1.87-.53l1.89-.55.66-.19a62.47,62.47,0,0,0,22.84-13.16c.47-.43.94-.85,1.41-1.3,2-1.92,4-3.89,5.89-5.91.81-.88,1.63-1.75,2.42-2.64s1.6-1.77,2.38-2.66l1.77-2,.57-.68c1.15-1.36,2.28-2.77,3.38-4.17.62-.79,1.22-1.55,1.81-2.34a174.05,174.05,0,0,0,10.77-15.91c.37-.68.78-1.36,1.19-2,1-1.74,2-3.49,2.91-5.26.51-1,1-1.91,1.51-2.87a3.57,3.57,0,0,1,.17-.34q.8-1.59,1.59-3.21a.07.07,0,0,1,0-.06c.51-1.07,1-2.12,1.5-3.21s1-2.24,1.48-3.36q2-4.78,3.83-9.72c.53-1.51,1.06-3,1.55-4.57.33-.94.62-1.88.89-2.81s.55-1.76.8-2.65l.25-.88c.26-.9.51-1.81.74-2.72.4-1.47.77-2.94,1.13-4.41a172.54,172.54,0,0,0,4.74-40.28C900.56,681.1,900.54,679.7,900.5,678.31ZM555.61,786.92c-1.24-2-156.16-254.26,144.28-189.91C694.35,596.09,505.25,566.09,555.61,786.92ZM810,654.64c-3.16,3.44-6.88,5.76-11.73,5.5a2.14,2.14,0,0,0-2.34,1.52q-10.56,21.06-21.21,42.08c-.86,1.69-.38,3.26-.13,4.87a21.92,21.92,0,0,1-.2,9.9c-1.18,4-3.37,5.35-7.47,4.58a2.06,2.06,0,0,0-2.64,1.34q-13.08,26.13-26.26,52.2a5,5,0,0,0-.46,3.29c.67,4.48-.71,7.21-4.75,9.12a4.64,4.64,0,0,0-2.25,2.38q-4.75,9.5-9.58,19c-3.7,7.26-12,7.84-16.61,1.21-.54-.79-.77-1.72-2.19-1.83-3.67-.29-5.38-2-6.06-5.53a7.84,7.84,0,0,1-.19-3.11c1.08-4.55-1-8.22-2.94-12.05Q674.42,752.4,656,715.66c-1-2.09-1.81-3.2-4.53-2.08-4,1.62-7.53-.19-9.45-4.29a23.09,23.09,0,0,1-1.2-15.33,16.31,16.31,0,0,0-2-12.44c-3.46-6.16-6.49-12.56-9.6-18.91-.8-1.64-1.52-2.42-3.63-2.49-11.63-.36-19.77-15.72-13.81-25.74a12.26,12.26,0,0,1,5.71-5.18c30.34-12.92,61.73-21.4,93.58-22,26.42.31,50.56,5.5,74.16,13.53,6.4,2.18,12.69,4.68,19,7.18C815.76,632.51,818.49,645.37,810,654.64Zm36.49,132.83a13.93,13.93,0,1,1,13.92-13.92A13.93,13.93,0,0,1,846.47,787.47Zm0-45.09a24.11,24.11,0,1,1,24.11-24.11A24.11,24.11,0,0,1,846.47,742.38Z" style="fill:url(#d)"/><path d="M904.32,809q-7.07,5.93-14.4,11.49c-34,25.88-73.15,45.14-114.89,54.73-35.61,8.18-72.56,9.42-108.74,4.64a386.88,386.88,0,0,1-91.41-24A441.8,441.8,0,0,1,511.64,825a262.78,262.78,0,0,1-23.25-15.12c-2.3-1.73-3.49-4.55-1.91-7.28,1.34-2.27,5-3.63,7.28-1.9l.36.26c2.95,1.88,5.73,4,8.65,6,6.29,4.15,12.71,8.06,19.23,11.81a424.12,424.12,0,0,0,64.21,30.16c29.28,10.85,60.06,18.58,91,21.65,35.92,3.57,72.31,1.06,107.14-8.59,41.49-11.49,79.57-32.85,112.49-60.43,2.21-1.84,5.34-2.17,7.52,0C906.22,803.38,906.53,807.15,904.32,809Z" style="fill:#222651"/><path d="M926.66,682.59c.34-4.23.49-8.53.49-12.87a172.15,172.15,0,0,0-53.87-125.27l.48-.23A278.83,278.83,0,0,1,938.86,621C935.57,646.56,931.49,674,926.66,682.59Z" style="fill:#222651"/><path d="M470.47,669.72c0,1.32,0,2.64.06,3.94-4-8.28-7.34-33.82-10-58.36a278.11,278.11,0,0,1,61.7-71.08c.53.23,1.06.47,1.59.68A172.2,172.2,0,0,0,470.47,669.72Z" style="fill:#222651"/><path d="M899.72,984.06q-6.59,3.63-13.32,7A368.89,368.89,0,0,1,777,1025.33a432.09,432.09,0,0,1-102.46,2.82A514.42,514.42,0,0,1,588.64,1013a507.09,507.09,0,0,1-58.29-19.12c-7.59-3-15.22-6.14-22.52-9.81a4.13,4.13,0,0,1-1.47-5.6A4.19,4.19,0,0,1,512,977l.34.17c2.7,1.28,5.4,2.54,8.13,3.75l3.67,1.6,1,.42.11.05h0l.17.07.13.06,2.08.86c3.4,1.41,6.82,2.76,10.26,4.08a517,517,0,0,0,61.42,19.2,493.44,493.44,0,0,0,86.46,13.56,413.78,413.78,0,0,0,101.61-5.48A359.9,359.9,0,0,0,895.59,977C900.21,974.44,904.34,981.52,899.72,984.06Z" style="fill:#222651"/><path d="M699.89,597c-5.54-.92-194.64-30.92-144.28,189.91C554.37,784.91,399.45,532.66,699.89,597Z" style="fill:#c7cce9"/><path d="M870.58,718.27a24.11,24.11,0,1,1-24.11-24.11A24.11,24.11,0,0,1,870.58,718.27Z" style="fill:#c7cce9"/><path d="M860.39,773.55a13.93,13.93,0,1,1-13.92-13.93A13.92,13.92,0,0,1,860.39,773.55Z" style="fill:#c7cce9"/></svg>