<svg xmlns="http://www.w3.org/2000/svg" xmlns:xlink="http://www.w3.org/1999/xlink" viewBox="0 0 1400 1443.44"><defs><radialGradient id="a" cx="700" cy="721.72" r="780.49" gradientTransform="translate(0 -242.87) scale(1 1.34)" gradientUnits="userSpaceOnUse"><stop offset="0" stop-color="#676fad"/><stop offset="0.91" stop-color="#222651"/></radialGradient><linearGradient id="b" x1="555.15" y1="496.02" x2="841.24" y2="496.02" gradientUnits="userSpaceOnUse"><stop offset="0" stop-color="#c7cce9"/><stop offset="0.91" stop-color="#848484"/></linearGradient><linearGradient id="c" x1="464.67" y1="749.71" x2="935.33" y2="749.71" xlink:href="#b"/><linearGradient id="d" x1="526.48" y1="704.84" x2="866.57" y2="704.84" gradientUnits="userSpaceOnUse"><stop offset="0" stop-color="#c7cce9" stop-opacity="0.4"/><stop offset="0.95" stop-color="#5764ac" stop-opacity="0.4"/></linearGradient></defs><title>astro-astro_web</title><rect width="1400" height="1443.44" style="fill:url(#a)"/><path d="M700.11,446.21c-65.69,0-112.69,20.69-145,49.09a223.06,223.06,0,0,0,286.09-2.78C810.28,466.09,765.24,446.21,700.11,446.21Z" style="fill:url(#b)"/><path d="M801.63,804.91c-.32.11-.66.22-1,.3a3.77,3.77,0,0,1-.6.16Z" style="fill:#2d2e83"/><path d="M672.78,725.91h0l0,0Zm100-49.35h0a0,0,0,0,0,0,0l-6.34,12.64q3.18-6.32,6.36-12.64h0Z" style="fill:#582b18"/><path d="M786.57,643.83c-5.23-2.07-10.45-4.15-15.77-6-19.6-6.67-39.65-11-61.59-11.24-26.45.47-52.52,7.52-77.72,18.25a10.11,10.11,0,0,0-4.74,4.31c-5,8.31,1.81,21.07,11.47,21.37a3,3,0,0,1,3,2.07c2.58,5.27,5.1,10.59,8,15.71a13.51,13.51,0,0,1,1.66,10.33,19.11,19.11,0,0,0,1,12.72c1.6,3.41,4.57,4.91,7.85,3.57,2.26-.93,2.89,0,3.76,1.73q15.28,30.51,30.68,61c1.61,3.18,3.34,6.22,2.45,10a6.3,6.3,0,0,0,.15,2.58c.57,2.93,2,4.35,5,4.59,1.19.09,1.37.86,1.82,1.52,3.84,5.51,10.72,5,13.8-1q4-7.86,8-15.74a3.83,3.83,0,0,1,1.87-2c3.36-1.59,4.5-3.85,3.94-7.58a4.23,4.23,0,0,1,.39-2.73Q742.5,745.68,753.37,724a1.7,1.7,0,0,1,2.19-1.11c3.41.64,5.23-.51,6.21-3.81a18.39,18.39,0,0,0,.17-8.22c-.22-1.33-.61-2.64.1-4q8.87-17.44,17.62-34.95a1.76,1.76,0,0,1,1.94-1.26c4,.21,7.12-1.71,9.74-4.57C798.41,658.31,796.14,647.63,786.57,643.83ZM693.75,768.16c-4.69-9.4-9.37-18.79-14.2-28.12-1.11-2.14-1.86-4.41-2.88-6.57-.14-.3-.38-.53-.16-.91.85-1.46,4.88-1.72,5.71-.3a4,4,0,0,0,2.87,2,24.3,24.3,0,0,0,5.13.62c3.43-.15,6.56.17,8.8,3.19a1.63,1.63,0,0,0,.65.42c1.72.85,3.75,1,4.72,3.22a24.37,24.37,0,0,1,2.19,9.44c-.43,7.83-3.65,13.67-10.17,17.61C695.26,769.43,694.48,769.62,693.75,768.16ZM751,719.55c-2.21,4.85-4.76,9.55-7.32,14.24s-4.89,9.51-7,14.42c-1,2.42-2.2,2.35-4.11,1.33a20.88,20.88,0,0,1-10.88-18.22c-.58-11.65,9.91-20.82,19.73-20.94a3.14,3.14,0,0,1,3,1.11,5,5,0,0,0,3.17,1.56C751.62,713.76,752.74,715.69,751,719.55Zm23.79-47.15a17.54,17.54,0,0,0-1.86,3.6c0,.18-.1.35-.15.54h0l.06.05h-.06l-6.35,12.64q-3.18,6.31-6.38,12.62a7.06,7.06,0,0,0-.73,4.21,37,37,0,0,1-.25,10.35c-.22,1.33-.47,2.94-2.42,2.73-1.8-.21-1.61-1.68-1.67-3-.15-3.65-2.15-5.43-6.17-5.4-1.94,0-3.75.28-3.22-2.75.23-1.35-1.27-.85-2-.89-9.61-.78-19.38,5.25-23.28,14.28a24,24,0,0,0,11.23,31.4c1.82.93,2.1,1.6,1.14,3.4l-.44.82c-.13.26-.27.51-.41.77-2.2,4.18-4.16,8.42-3.76,13.5a3.39,3.39,0,0,1-2.43,3.36,2.25,2.25,0,0,1-.91.15c-1.13.06-1.84-.88-2.54-1.72-.35-.39-.66-.81-1.16-1.44a4.71,4.71,0,0,0,.38,4c.86,1.29.56,2.36-.07,3.59-2.39,4.61-4.72,9.25-7,13.89-.85,1.7-1.84,3.2-3.81,3.14a3.79,3.79,0,0,1-.93-.07c-2.54-.48-3.35-2.53-3.74-4.72-.19-1.12-.11-2.27-.94-3.27-.52,1.5-.55,3.69-2.39,3.6a2.2,2.2,0,0,1-.78-.08c-2.06-.5-1.89-2.93-1.82-4.67.2-4.59-.27-8.93-3.08-12.65l-.25-.32a4.19,4.19,0,0,0-.28-.34c-.19-.22-.39-.45-.6-.67,7.42-3.52,12.06-9.12,13.73-17A23,23,0,0,0,708,741.29c-.75-1.64-1.72-3.12-.64-5a2.36,2.36,0,0,0-.46-2.5c-.54,1.36-.52,3.22-2.29,3.43s-3.07-.87-4.16-2.22a8.85,8.85,0,0,0-7.76-3.4c-1.64.09-3.29.12-4.93.12-4.36,0-4.93-.78-3.61-4.9a40.51,40.51,0,0,0-8.64,2.24c-2.64.47-1.84-2-2.71-3.11h0c-1.86-2.13-2.7-4.81-3.89-7.29-.07-.17-.14-.33-.22-.5-.7-1.56-1.84-2.94-2.14-4.69a8.29,8.29,0,0,1-2-6.15c-.7-.66-.36-1.88-1.42-2.51a30.08,30.08,0,0,1-.19,3.72c-.4,2.5-2.08,3.69-4.51,3.85s-3.23-1.46-3.78-3.25a25,25,0,0,1-.83-10c.6-5.65,0-11-3-16-1.15-2-2.17-4-3.17-6s-2-4.15-3-6.19c-.48-1-.8-1.73.47-2.3,4.65-2.08,9.27-4.21,14.11-5.84a7.81,7.81,0,0,1,1.78,0c-5,3.62-10.67,9.23-13.34,14.35a67.18,67.18,0,0,1,18.58-15.07,61.84,61.84,0,0,1,22.19-6.6,191,191,0,0,1,21-1.4c16-.14,30,5.42,42.61,14.73a37,37,0,0,0,19.29,7.61c.24,0,.5,0,.74,0-4.7-1.86-9.85-2.64-14-5.75-3.8-2.81-7.6-5.62-11.35-8.51-1-.76-2.36-1-3.19-2.46,2.46-.45,4.44.7,6.39,1.44a17,17,0,0,0,7.31,1.36c2.65-.15,5,1.15,7.41,1.9a65.32,65.32,0,0,1,8.84,3.66C776.33,669.31,776.33,669.65,774.77,672.4Zm14.77-11.21c-2.65,5.18-6.92,6.32-12.11,3.67-15-7.67-31.11-11.88-47.8-14a154.35,154.35,0,0,0-41.41.26c-16,2.31-31.46,6.53-45.88,14.07-3.91,2-7.33,1.44-10.2-1.91a12.78,12.78,0,0,1-2.9-9.69,6.05,6.05,0,0,1,3.89-5.15,210,210,0,0,1,42.39-13.62c8.91-1.75,17.79-3.64,26.9-4,.86,0,1.73,0,2.59,0a24.47,24.47,0,0,1,6.13,0H716c9.74.06,19.28,1.72,28.76,3.73a227.92,227.92,0,0,1,38.11,11.86,29.42,29.42,0,0,1,4.17,2.07C792.21,651.66,792.06,656.29,789.54,661.19Z" style="fill:#871b33"/><path d="M666.55,713.44h0l0,0Zm6.25,12.48h0l0,0Zm100-49.38h0a1.19,1.19,0,0,0-.68-.25c.23.09.45.17.67.27a0,0,0,0,0,0,0l-6.34,12.64q3.18-6.32,6.36-12.64h.05Z" style="fill:#fab62b"/><path d="M661.05,662.65c-5,3.62-10.68,9.23-13.35,14.36-1-2.07-2-4.16-3-6.2-.48-1-.81-1.73.47-2.3,4.65-2.08,9.27-4.21,14.1-5.84A7.42,7.42,0,0,1,661.05,662.65Z" style="fill:#e9415f"/><path d="M698.46,686.15v.09a.08.08,0,0,0,0-.07Zm-1.09-4.82,0,0a3.13,3.13,0,0,1,.15.32A3.62,3.62,0,0,0,697.37,681.33Z" style="fill:#f0e027"/><path d="M772.09,676.29c-.24,0-.5,0-.75,0a36.9,36.9,0,0,1-19.27-7.61c-12.66-9.32-26.64-14.87-42.62-14.73a186.18,186.18,0,0,0-21,1.41,61.81,61.81,0,0,0-22.19,6.58A67.4,67.4,0,0,0,647.7,677c1,2,2,4.08,3.17,6,2.93,5.05,3.56,10.37,3,16a25.12,25.12,0,0,0,.84,10c.56,1.8,1.5,3.42,3.78,3.26s4.11-1.35,4.51-3.85a32.13,32.13,0,0,0,.2-3.72c1.05.63.7,1.85,1.41,2.51a8.29,8.29,0,0,0,2,6.15h0v0l0,0c.3,1.75,1.43,3.13,2.14,4.69.08.17.15.33.22.5,1.2,2.48,2,5.16,3.89,7.28h0v0l0,0c.87,1.07.07,3.58,2.71,3.11a41.13,41.13,0,0,1,8.64-2.25c-1.32,4.12-.75,4.91,3.61,4.92,1.64,0,3.29,0,4.93-.13a8.85,8.85,0,0,1,7.76,3.4c1.09,1.35,2.43,2.42,4.17,2.22s1.74-2.07,2.28-3.43a2.38,2.38,0,0,1,.47,2.5c-1.09,1.92-.12,3.4.63,5A23,23,0,0,1,709.43,756c-1.67,7.88-6.31,13.49-13.73,17,.21.22.41.44.6.67s.19.23.28.34.18.22.25.32c2.81,3.73,3.29,8.06,3.08,12.65-.08,1.74-.24,4.17,1.82,4.67a2.2,2.2,0,0,0,.78.08c1.84.1,1.87-2.1,2.39-3.6.83,1,.75,2.15,1,3.27.38,2.19,1.19,4.24,3.73,4.72a3.74,3.74,0,0,0,.92.07c2,.06,3-1.44,3.82-3.14,2.32-4.64,4.65-9.28,7-13.89.63-1.23.94-2.3.07-3.59a4.71,4.71,0,0,1-.38-4c.5.63.81,1,1.16,1.44.71.84,1.41,1.79,2.54,1.72a2.25,2.25,0,0,0,.91-.15,3.38,3.38,0,0,0,2.43-3.36c-.4-5.08,1.56-9.32,3.76-13.5.14-.26.28-.51.41-.77l.44-.82c1-1.8.68-2.47-1.14-3.4a24,24,0,0,1-11.23-31.4c3.9-9,13.67-15.06,23.28-14.29.69.06,2.19-.45,1.95.9-.52,3,1.29,2.76,3.23,2.75,4,0,6,1.76,6.17,5.39.06,1.31-.13,2.78,1.67,3,2,.22,2.2-1.39,2.42-2.72A37,37,0,0,0,759.3,706a7.06,7.06,0,0,1,.73-4.21q3.21-6.3,6.38-12.62l6.34-12.64a0,0,0,0,1,0,0C772.54,676.46,772.32,676.38,772.09,676.29Zm-50,19.78c-3.29,6.7-11,10.14-18.61,13.5-1,.47-2.09.93-3.12,1.41a10.52,10.52,0,0,1-4.35,1,11.52,11.52,0,0,1-6-1.76c-3.95-2.36-7.43-7-9.45-12.15,0,0,0,0,0,0a26,26,0,0,1-1.82-7.82,22.36,22.36,0,0,1,7.58-18.41c2.56-2.27,7.95-2.65,11.71-1.87,2.87.59,4.82,1.82,5.63,3.55.89,1.89-.39,3.84-1.62,5.74-.9,1.39-1.93,3-2,4.3-.35,8.14,1.27,9.11,1.28,9.11.84.15,4.22-3.18,7.21-12,0-.06.41-1.38.81-2.72.87-2.88.87-2.88.88-2.93a3.09,3.09,0,0,1,3.1-2.26c3.64.17,8.79,6.84,9.71,10.62a22.23,22.23,0,0,1,.64,5.34A16.57,16.57,0,0,1,722.08,696.07Z" style="fill:#f0e027"/><path d="M698.46,686.17a.08.08,0,0,1,0,.07v-.07Z" style="fill:#f0e027"/><path d="M697.5,681.68a3.13,3.13,0,0,0-.15-.32l0,0A3.62,3.62,0,0,1,697.5,681.68Z" style="fill:#f0e027"/><path d="M789.55,661.19c-2.66,5.18-6.93,6.32-12.12,3.67-15-7.67-31.11-11.88-47.79-14a154,154,0,0,0-41.42.26c-16,2.31-31.46,6.53-45.88,14.07-3.91,2-7.33,1.44-10.2-1.91a12.77,12.77,0,0,1-2.9-9.69,6.07,6.07,0,0,1,3.89-5.15,210.61,210.61,0,0,1,42.39-13.62c8.91-1.75,17.79-3.64,26.9-4,.86,0,1.73,0,2.59,0a24.47,24.47,0,0,1,6.13,0H716c9.74.06,19.28,1.72,28.76,3.73a227,227,0,0,1,38.11,11.87,28.33,28.33,0,0,1,4.17,2.06C792.21,651.66,792.06,656.29,789.55,661.19Z" style="fill:#c1b121"/><path d="M751,719.55c-2.21,4.86-4.77,9.55-7.32,14.24s-4.89,9.51-7,14.42c-1,2.41-2.2,2.36-4.11,1.34a20.91,20.91,0,0,1-10.88-18.23c-.58-11.64,9.92-20.82,19.73-20.94a3.12,3.12,0,0,1,2.94,1.11,5,5,0,0,0,3.18,1.56C751.62,713.76,752.74,715.69,751,719.55Z" style="fill:#e9415f"/><path d="M704.39,741.67c-1-2.18-3-2.36-4.72-3.21A1.87,1.87,0,0,1,699,738c-2.23-3-5.37-3.34-8.8-3.2a23,23,0,0,1-5.13-.61,4.05,4.05,0,0,1-2.88-2c-.82-1.42-4.85-1.16-5.7.3-.22.38,0,.61.17.91,1,2.16,1.76,4.43,2.87,6.57,4.83,9.32,9.51,18.72,14.2,28.12.73,1.46,1.5,1.27,2.66.57,6.52-3.94,9.74-9.77,10.17-17.62A24.64,24.64,0,0,0,704.39,741.67Zm-18.69,7a1.45,1.45,0,0,1-1.44-1.21c-.72-2.67-2.25-4.95-3.55-7.34-.85-1.54-.44-2.77.92-3.47,5.37-2.76,9.63-.07,10.64,5.77C692.38,745.08,688.34,748.89,685.7,748.63Z" style="fill:#e9415f"/><path d="M772.8,676.58h0Z" style="fill:#fab62b"/><path d="M774.77,672.4a17.62,17.62,0,0,0-1.86,3.61,4.1,4.1,0,0,0-.14.53,1.19,1.19,0,0,0-.68-.25c-4.7-1.86-9.85-2.64-14-5.74-3.8-2.82-7.6-5.64-11.35-8.52-1-.76-2.36-1-3.19-2.46,2.45-.44,4.44.7,6.39,1.44a17.35,17.35,0,0,0,7.31,1.37c2.65-.16,5,1.14,7.41,1.89a64.12,64.12,0,0,1,8.84,3.67C776.33,669.32,776.33,669.65,774.77,672.4Z" style="fill:#e9415f"/><path d="M772.77,676.54v0h0c-.22-.1-.44-.18-.67-.27A1.19,1.19,0,0,1,772.77,676.54Z" style="fill:#fab62b"/><path d="M672.8,725.94l0,0h0Z" style="fill:#faf8f1"/><path d="M666.56,713.47l0,0h0Z" style="fill:#faf8f1"/><path d="M666.56,713.47l0,0h0Z" style="fill:#faf8f1"/><path d="M672.8,725.94l0,0h0Z" style="fill:#faf8f1"/><path d="M692.27,742.38c.11,2.7-3.93,6.51-6.57,6.25a1.45,1.45,0,0,1-1.44-1.21c-.72-2.67-2.25-4.95-3.55-7.34-.85-1.54-.44-2.77.92-3.47C687,733.85,691.26,736.54,692.27,742.38Z" style="fill:#871b33"/><path d="M698.46,686.17a.08.08,0,0,1,0,.07v-.07Z" style="fill:#e9415f"/><path d="M684,682.47c.28-.4.58-.8.88-1.17C684.61,681.67,684.31,682.07,684,682.47Z" style="fill:#e9415f"/><path d="M686.51,679.53l.2-.18c-.12.1-.23.21-.34.32Z" style="fill:#e9415f"/><path d="M697.5,681.68a3.13,3.13,0,0,0-.15-.32l0,0A3.62,3.62,0,0,1,697.5,681.68Z" style="fill:#e9415f"/><path d="M697.37,681.33l0,0a3.13,3.13,0,0,1,.15.32A3.62,3.62,0,0,0,697.37,681.33Zm1.09,4.82v.09a.08.08,0,0,0,0-.07Z" style="fill:#871b34"/><path d="M723.06,683.33c-.92-3.78-6.07-10.45-9.71-10.62a3.09,3.09,0,0,0-3.1,2.26s0,0-.88,2.93c-.4,1.34-.8,2.66-.81,2.72-3,8.82-6.37,12.15-7.21,12,0,0-1.63-1-1.28-9.11.06-1.34,1.09-2.91,2-4.3,1.23-1.9,2.51-3.85,1.62-5.74-.81-1.73-2.76-3-5.63-3.55-3.76-.78-9.15-.4-11.71,1.87a22.36,22.36,0,0,0-7.58,18.41,26,26,0,0,0,1.82,7.82s0,0,0,0c2,5.17,5.5,9.79,9.45,12.15a11.52,11.52,0,0,0,6,1.76,10.52,10.52,0,0,0,4.35-1c1-.48,2.08-.94,3.12-1.41,7.57-3.36,15.32-6.8,18.61-13.5a16.57,16.57,0,0,0,1.62-7.4A22.23,22.23,0,0,0,723.06,683.33ZM702.2,706.72q-1.58.69-3.15,1.41a7.62,7.62,0,0,1-7.42-.63c-5-3-9.3-10.68-9.75-17.51a18.79,18.79,0,0,1,.13-3.9h0a19.3,19.3,0,0,1,6.39-12c1.05-.91,3.43-1.45,5.92-1.45a15.9,15.9,0,0,1,3.1.3c1.78.37,3.07,1,3.42,1.81.08.43-.84,1.86-1.4,2.72a18,18,0,0,0-2.07,3.82,3.62,3.62,0,0,1,.13.35,3.13,3.13,0,0,0-.15-.32,7.25,7.25,0,0,0-.4,2c-.24,5.5.32,9.13,1.71,11a3.34,3.34,0,0,0,2.12,1.36,3,3,0,0,0,.59.06c3.94,0,7.79-7.17,10.15-14.12,0,0,0,0,.84-2.83.42-1.37.83-2.75.85-2.82a1.07,1.07,0,0,1,.07-.15c1.43.09,5.94,4.94,6.74,8.24a16.75,16.75,0,0,1,.38,2,18.54,18.54,0,0,1,.18,2.58C720.58,698.55,712.06,702.34,702.2,706.72Zm-3.74-20.55a.08.08,0,0,1,0,.07v-.07Z" style="fill:#871b33"/><path d="M720.4,686.09a16.75,16.75,0,0,0-.38-2c-.8-3.3-5.31-8.15-6.74-8.24a1.07,1.07,0,0,0-.07.15c0,.07-.43,1.45-.85,2.82-.83,2.78-.83,2.79-.84,2.83-2.36,7-6.21,14.12-10.15,14.12a3,3,0,0,1-.59-.06,3.34,3.34,0,0,1-2.12-1.36c-1.39-1.83-1.95-5.46-1.71-11a7.25,7.25,0,0,1,.4-2l0,0a18,18,0,0,1,2.07-3.82c.56-.86,1.48-2.29,1.4-2.72-.35-.76-1.64-1.44-3.42-1.81a15.9,15.9,0,0,0-3.1-.3c-2.49,0-4.87.54-5.92,1.45a19.3,19.3,0,0,0-6.39,12h0a18.79,18.79,0,0,0-.13,3.9c.45,6.83,4.74,14.51,9.75,17.51a7.62,7.62,0,0,0,7.42.63q1.58-.72,3.15-1.41c9.86-4.38,18.38-8.17,18.38-18.05A18.54,18.54,0,0,0,720.4,686.09ZM684,682.47c.28-.4.58-.8.88-1.17C684.61,681.67,684.31,682.07,684,682.47Zm2.34-2.8.14-.14.2-.18C686.59,679.45,686.48,679.56,686.37,679.67Z" style="fill:#e9415f"/><path d="M858.18,737.58c-1,2.74-2,5.42-3.18,8.08C856.13,743,857.19,740.32,858.18,737.58Z" style="fill:#00a19a"/><g style="opacity:0.61"><path d="M580.08,775.87c-1-1.67-129.69-211.16,119.83-157.72C695.31,617.38,538.26,592.47,580.08,775.87Z" style="fill:#6169af"/><path d="M791.34,666c-2.62,2.86-5.71,4.78-9.74,4.57a1.76,1.76,0,0,0-1.94,1.26q-8.77,17.49-17.62,34.95c-.71,1.4-.32,2.71-.1,4a18.39,18.39,0,0,1-.17,8.22c-1,3.3-2.8,4.45-6.21,3.81a1.7,1.7,0,0,0-2.19,1.11q-10.86,21.71-21.81,43.35a4.23,4.23,0,0,0-.39,2.73c.56,3.73-.58,6-3.94,7.58a3.83,3.83,0,0,0-1.87,2q-3.95,7.89-8,15.74c-3.08,6-10,6.51-13.8,1-.45-.66-.63-1.43-1.82-1.52-3-.24-4.46-1.66-5-4.59a6.3,6.3,0,0,1-.15-2.58c.89-3.79-.84-6.83-2.45-10q-15.4-30.45-30.68-61c-.87-1.74-1.5-2.66-3.76-1.73-3.28,1.34-6.25-.16-7.85-3.57a19.11,19.11,0,0,1-1-12.72,13.51,13.51,0,0,0-1.66-10.33c-2.88-5.12-5.4-10.44-8-15.71a3,3,0,0,0-3-2.07c-9.66-.3-16.42-13.06-11.47-21.37a10.11,10.11,0,0,1,4.74-4.31c25.2-10.73,51.27-17.78,77.72-18.25,21.94.26,42,4.57,61.59,11.24,5.32,1.81,10.54,3.89,15.77,6C796.14,647.63,798.41,658.31,791.34,666Z" style="fill:#6169af"/><path d="M800.05,805.37l1.58-.46c-.32.11-.66.22-1,.3A3.77,3.77,0,0,1,800.05,805.37Z" style="fill:#6169af"/><path d="M833.21,764.76a11.57,11.57,0,1,1-11.57-11.57A11.57,11.57,0,0,1,833.21,764.76Z" style="fill:#6169af"/><path d="M841.67,718.86a20,20,0,1,1-20-20A20,20,0,0,1,841.67,718.86Z" style="fill:#6169af"/><path d="M858.18,737.58c-1,2.74-2,5.42-3.18,8.08C856.13,743,857.19,740.32,858.18,737.58Z" style="fill:#6169af"/></g><path d="M918.68,750.56c.37-1.27.77-2.54,1.18-3.83,1.17-3.67,2.4-7.38,3.5-11.13v0c16-16,11.32-18.89,11.32-41.47s-14.94-24.53-14.94-24.53c-4.14-27.84-9.57-57.62-16.22-70.53a.06.06,0,0,1,0,.05c-5.26-24.76-19.3-64.26-51.82-96.92a237.19,237.19,0,0,1-306.81,3c-27.67,28.59-42.33,62.93-47.46,91.76-.14-1.24-17.15,72.68-17.15,72.68s-14.94,2-14.94,24.53-4.72,25.45,11.32,41.49l0-.7c1.45,5.14,3.11,10.19,4.78,15.18.11.31.2.61.3.91-6.9,4.31-6.59,20.21-4.17,38.17,2.5,18.37,21,9.45,21,9.45s13.53,26.9,26.16,40.41a35.14,35.14,0,0,0,11.83,8.39c2.53,1.09,5.11,2.15,7.72,3.18-4.15,16.88-1,38.57-1,38.57-16.47,0-17.5,34-18.81,35.67-32.25,42.33,69.88,72.4,185.62,72.4s174.2-25.47,186.6-46.69-.32-28.08,0-29.71c6-29.78-18.61-31-18.61-31V859.17c0-8.25-1.74-13.9-3.53-17.53a58,58,0,0,0,15.38-15.19A126.87,126.87,0,0,0,903.84,799s18.76,8.34,20.67-10.1S926.19,754.22,918.68,750.56ZM604.18,591.92l.2.05c1,.25,2,.51,3,.74s1.89.48,2.82.7c1.77.43,3.53.85,5.3,1.25,2,.45,4,.89,6,1.3s3.87.81,5.81,1.16a377.16,377.16,0,0,0,143.21-.22h0c2.56-.5,5.11-1,7.65-1.56.55-.14,1.1-.25,1.65-.37,3.1-.69,6.19-1.41,9.27-2.19a52.48,52.48,0,0,1,58.16,24.53c.66,1.12,1.27,2.23,1.89,3.36l.07.13c.38.67.73,1.35,1.08,2,.28.51.53,1,.79,1.52.43.82.83,1.63,1.21,2.46.17.33.33.65.47,1,.39.79.76,1.59,1.13,2.4.55,1.22,1.1,2.45,1.61,3.69s1.08,2.61,1.57,3.94c.46,1.18.91,2.37,1.31,3.55.25.65.47,1.32.69,2l.21.63c.21.62.42,1.25.6,1.87s.32,1,.46,1.45c.27.88.53,1.76.78,2.66.14.48.28,1,.41,1.43.33,1.2.65,2.42.93,3.64.25,1,.5,2.07.72,3.11.08.35.16.7.23,1.06.24,1.06.44,2.12.64,3.18s.44,2.37.62,3.56c0,.13,0,.25.07.4.2,1.14.36,2.31.51,3.47,0,0,0,0,0,.06.18,1.25.34,2.52.46,3.79.1,1,.21,1.94.28,2.92a2.87,2.87,0,0,1,0,.39c0,.42.07.83.1,1.25.08,1,.14,2.07.2,3.11s.1,1.93.12,2.9c0,.47,0,1,0,1.41,0,1.15.05,2.32.05,3.48a143.05,143.05,0,0,1-3.94,33.45c-.3,1.22-.6,2.44-.93,3.66-.18.76-.4,1.52-.62,2.26l-.21.74c-.2.73-.42,1.46-.66,2.2s-.47,1.55-.74,2.32c-.41,1.27-.85,2.55-1.29,3.8-1,2.74-2,5.42-3.18,8.08-.4.93-.81,1.86-1.23,2.78s-.82,1.79-1.24,2.67a.07.07,0,0,0,0,.06l-1.32,2.66a2.41,2.41,0,0,0-.14.28c-.43.8-.83,1.6-1.26,2.39-.78,1.47-1.57,2.91-2.42,4.36-.33.57-.67,1.13-1,1.7a143.06,143.06,0,0,1-8.95,13.21c-.49.65-1,1.29-1.5,1.94-.92,1.17-1.85,2.34-2.8,3.47l-.48.56c-.48.57-1,1.14-1.47,1.7-.63.73-1.28,1.48-2,2.2s-1.34,1.47-2,2.2c-1.59,1.67-3.22,3.31-4.89,4.9-.39.38-.78.73-1.17,1.08a51.85,51.85,0,0,1-19,10.94l-.54.15c-.32.11-.66.22-1,.3a3.77,3.77,0,0,1-.6.16c-.51.16-1,.3-1.55.44q-5.43,1.52-11,2.87c-3,.74-6,1.43-9.1,2.1-.26.07-.52.12-.8.17-1.46.32-2.92.62-4.39.93l-4.93,1c-1.64.31-3.3.61-5,.89-2.48.45-5,.87-7.47,1.24s-5,.74-7.53,1.08c-1.59.21-3.2.4-4.79.6-1.76.23-3.55.42-5.33.6s-3.39.35-5.08.51q-8.35.79-16.8,1.17-8.93.45-18,.44c-5.67,0-11.31-.12-16.91-.39-7.54-.31-15-.88-22.41-1.66h0c-1.76-.18-3.55-.39-5.31-.6s-3.38-.41-5.08-.63c-1.23-.16-2.47-.34-3.7-.52s-2.39-.33-3.57-.53c-1.36-.2-2.72-.42-4.07-.63q-12.56-2.07-24.79-4.95c-1.47-.33-3-.69-4.42-1.06-1.16-.28-2.33-.58-3.49-.88l-2.36-.62c-3-.8-6-1.62-8.93-2.49-1.08-.3-2.18-.64-3.25-.95-.2-.06-.37-.13-.57-.18a52.25,52.25,0,0,1-20.24-12c-.39-.39-.78-.76-1.16-1.15q-3.93-3.95-7.51-8.18c-.46-.54-.94-1.09-1.38-1.66-.76-.9-1.48-1.8-2.19-2.72-.56-.7-1.11-1.41-1.64-2.13s-1.11-1.48-1.66-2.23-1.08-1.52-1.61-2.28-1.17-1.69-1.73-2.54c-1-1.47-1.93-3-2.85-4.45q-2.91-4.77-5.47-9.77c-.85-1.66-1.66-3.34-2.46-5a1.12,1.12,0,0,0-.05-.13c-.44-1-.9-2-1.32-3a143.63,143.63,0,0,1-8-24.18c-.12-.53-.24-1.08-.35-1.61-.19-.86-.37-1.73-.55-2.6s-.31-1.55-.44-2.33c-.11-.47-.19-.95-.27-1.42-.17-1-.33-1.91-.47-2.87a145.49,145.49,0,0,1-1.65-21.83c0-1.22,0-2.45.06-3.68,0-.2,0-.4,0-.61,0-1.1.07-2.21.12-3.3a2,2,0,0,0,0-.34c0-1,.12-2.08.21-3.13,0-.51.07-1,.12-1.53.09-1,.2-2,.3-3,.13-1.24.28-2.44.44-3.66.15-1.06.31-2.12.47-3.16.07-.55.16-1.08.27-1.63l.09-.54c.36-2.12.78-4.24,1.24-6.31.21-1,.46-2.05.71-3.07.35-1.5.74-3,1.16-4.47.22-.78.43-1.56.68-2.32.16-.56.31-1.13.51-1.67.28-1,.6-1.94.92-2.9.39-1.18.79-2.37,1.23-3.53.34-.94.67-1.85,1-2.77.46-1.17.91-2.32,1.39-3.45.21-.53.45-1.06.69-1.6a139.83,139.83,0,0,1,9-17.51c.1-.18.21-.34.31-.52s.4-.61.59-.93A51.79,51.79,0,0,1,604.18,591.92Zm-103,41.41a230.93,230.93,0,0,1,51.24-59l1.33.56a143,143,0,0,0-44.34,103.66c0,1.1,0,2.2.05,3.27C506.12,674.93,503.33,653.72,501.14,633.33ZM865.87,939.6q-5.46,3-11.06,5.79A306.64,306.64,0,0,1,764,973.88a359,359,0,0,1-85.1,2.34A433.83,433.83,0,0,1,559.1,947.75c-6.3-2.51-12.64-5.1-18.7-8.15a3.43,3.43,0,0,1-1.23-4.65,3.48,3.48,0,0,1,4.66-1.22l.28.14c2.24,1.06,4.49,2.11,6.75,3.11l3,1.33.84.35.08,0h0l.14.06.11.05,1.72.72q4.24,1.74,8.52,3.38a429.39,429.39,0,0,0,51,16,410.62,410.62,0,0,0,71.8,11.26,343.33,343.33,0,0,0,84.39-4.55,299.05,299.05,0,0,0,89.88-31.85C866.28,931.61,869.71,937.49,865.87,939.6ZM713.35,896.5c-108.07,0-143.83-24.65-155.16-34.12a13.14,13.14,0,0,1-4.9-8.37c44.2,16,97.82,24.74,145.06,24.74,53.2,0,116.91-11.11,165.11-31.14,1.86-.78,3.67-1.63,5.43-2.57C881.09,864.71,817.12,896.5,713.35,896.5ZM869.69,794.2q-5.87,4.92-12,9.55c-28.27,21.49-60.75,37.49-95.41,45.46A255,255,0,0,1,672,853.06a321.72,321.72,0,0,1-75.92-19.95,366.9,366.9,0,0,1-52.51-25.66,216.35,216.35,0,0,1-19.32-12.55c-1.91-1.44-2.89-3.78-1.58-6,1.11-1.89,4.13-3,6-1.58l.3.22c2.45,1.56,4.77,3.35,7.19,5q7.83,5.16,16,9.81a353.05,353.05,0,0,0,53.33,25c24.31,9,49.88,15.43,75.54,18,29.83,3,60.05.88,89-7.14,34.46-9.54,66.08-27.28,93.43-50.18a4.5,4.5,0,0,1,6.24,0C871.27,789.54,871.53,792.68,869.69,794.2Zm18.55-105c.29-3.51.41-7.08.41-10.69a142.93,142.93,0,0,0-44.74-104l.41-.19a231.53,231.53,0,0,1,54.06,63.74C895.65,659.3,892.26,682.05,888.24,689.22Z" style="fill:url(#c)"/><path d="M866.52,685.67c0-.46,0-.94,0-1.41,0-1-.07-1.93-.12-2.9s-.12-2.06-.2-3.11c0-.42-.06-.83-.1-1.25a2.87,2.87,0,0,0,0-.39c-.07-1-.18-2-.28-2.92-.12-1.27-.28-2.54-.46-3.79,0,0,0,0,0-.06-.15-1.16-.33-2.33-.51-3.47,0-.15,0-.27-.07-.4-.2-1.19-.39-2.38-.62-3.56s-.4-2.12-.64-3.18c-.07-.36-.15-.71-.23-1.06-.22-1-.47-2.09-.72-3.11-.3-1.22-.62-2.44-.93-3.64-.13-.48-.27-.95-.41-1.43-.25-.9-.51-1.78-.78-2.66-.14-.48-.3-1-.46-1.45s-.39-1.25-.6-1.87l-.21-.63c-.22-.67-.44-1.34-.69-2-.4-1.18-.85-2.37-1.31-3.55-.49-1.33-1-2.63-1.57-3.94s-1.06-2.47-1.61-3.69c-.37-.81-.74-1.61-1.13-2.4-.14-.34-.3-.66-.47-1-.38-.83-.78-1.64-1.21-2.46-.26-.51-.51-1-.79-1.52-.35-.69-.7-1.37-1.08-2l-.07-.13c-.62-1.13-1.23-2.24-1.89-3.36a52.48,52.48,0,0,0-58.16-24.53c-3.08.78-6.17,1.5-9.27,2.19-.55.12-1.1.23-1.65.37-2.54.55-5.09,1.06-7.65,1.56h0a377.16,377.16,0,0,1-143.21.22q-2.91-.52-5.81-1.16c-2-.41-4-.85-6-1.3-1.77-.4-3.53-.82-5.3-1.25-.93-.22-1.89-.46-2.82-.7s-2-.49-3-.74l-.2-.05a51.79,51.79,0,0,0-56.09,21.56c-.19.32-.39.62-.59.93s-.21.34-.31.52a139.83,139.83,0,0,0-9,17.51c-.24.54-.48,1.07-.69,1.6-.48,1.13-.93,2.28-1.39,3.45-.36.92-.69,1.83-1,2.77-.44,1.16-.84,2.35-1.23,3.53-.32,1-.64,1.93-.92,2.9-.2.54-.35,1.11-.51,1.67-.25.76-.46,1.54-.68,2.32-.42,1.47-.81,3-1.16,4.47-.25,1-.5,2.05-.71,3.07-.46,2.07-.88,4.19-1.24,6.31l-.09.54c-.11.55-.2,1.08-.27,1.63-.16,1-.32,2.1-.47,3.16-.16,1.22-.31,2.42-.44,3.66-.1,1-.21,2-.3,3,0,.51-.08,1-.12,1.53-.09,1-.16,2.09-.21,3.13a2,2,0,0,1,0,.34c0,1.09-.1,2.2-.12,3.3,0,.21,0,.41,0,.61,0,1.23-.06,2.46-.06,3.68A145.49,145.49,0,0,0,528.13,711c.14,1,.3,1.91.47,2.87.08.47.16.95.27,1.42.13.78.28,1.56.44,2.33s.36,1.74.55,2.6c.11.53.23,1.08.35,1.61a143.63,143.63,0,0,0,8,24.18c.42,1,.88,2,1.32,3a1.12,1.12,0,0,1,.05.13c.8,1.71,1.61,3.39,2.46,5q2.55,5,5.47,9.77c.92,1.5,1.88,3,2.85,4.45.56.85,1.13,1.7,1.73,2.54s1.06,1.52,1.61,2.28,1.09,1.48,1.66,2.23,1.08,1.43,1.64,2.13c.71.92,1.43,1.82,2.19,2.72.44.57.92,1.12,1.38,1.66q3.57,4.25,7.51,8.18c.38.39.77.76,1.16,1.15a52.25,52.25,0,0,0,20.24,12c.2.05.37.12.57.18,1.07.31,2.17.65,3.25.95,3,.87,5.93,1.69,8.93,2.49l2.36.62c1.16.3,2.33.6,3.49.88,1.47.37,2.95.73,4.42,1.06q12.24,2.89,24.79,4.95c1.35.21,2.71.43,4.07.63,1.18.2,2.37.38,3.57.53s2.47.36,3.7.52c1.7.22,3.38.44,5.08.63s3.55.42,5.31.6h0c7.42.78,14.87,1.35,22.41,1.66,5.6.27,11.24.39,16.91.39q9.06,0,18-.44,8.45-.37,16.8-1.17c1.69-.16,3.39-.32,5.08-.51s3.57-.37,5.33-.6c1.59-.2,3.2-.39,4.79-.6,2.53-.34,5-.71,7.53-1.08s5-.79,7.47-1.24c1.66-.28,3.32-.58,5-.89l4.93-1c1.47-.31,2.93-.61,4.39-.93.28-.05.54-.1.8-.17,3.06-.67,6.1-1.36,9.1-2.1q5.54-1.36,11-2.87c.53-.14,1-.28,1.55-.44l1.58-.46.54-.15a51.85,51.85,0,0,0,19-10.94c.39-.35.78-.7,1.17-1.08,1.67-1.59,3.3-3.23,4.89-4.9.67-.73,1.36-1.45,2-2.2s1.33-1.47,2-2.2l1.47-1.7.48-.56c1-1.13,1.88-2.3,2.8-3.47.51-.65,1-1.29,1.5-1.94a143.06,143.06,0,0,0,8.95-13.21c.31-.57.65-1.13,1-1.7.85-1.45,1.64-2.89,2.42-4.36.43-.79.83-1.59,1.26-2.39a2.41,2.41,0,0,1,.14-.28l1.32-2.66a.07.07,0,0,1,0-.06c.42-.88.83-1.76,1.24-2.67s.83-1.85,1.23-2.78c1.13-2.66,2.19-5.34,3.18-8.08.44-1.25.88-2.53,1.29-3.8.27-.77.51-1.55.74-2.32s.46-1.47.66-2.2l.21-.74c.21-.74.42-1.5.62-2.26.33-1.22.63-2.44.93-3.66a143.05,143.05,0,0,0,3.94-33.45C866.57,688,866.56,686.82,866.52,685.67Zm-286.44,90.2c-1-1.67-129.69-211.16,119.83-157.72C695.31,617.38,538.26,592.47,580.08,775.87ZM791.34,666c-2.62,2.86-5.71,4.78-9.74,4.57a1.76,1.76,0,0,0-1.94,1.26q-8.77,17.49-17.62,34.95c-.71,1.4-.32,2.71-.1,4a18.39,18.39,0,0,1-.17,8.22c-1,3.3-2.8,4.45-6.21,3.81a1.7,1.7,0,0,0-2.19,1.11q-10.86,21.71-21.81,43.35a4.23,4.23,0,0,0-.39,2.73c.56,3.73-.58,6-3.94,7.58a3.83,3.83,0,0,0-1.87,2q-3.95,7.89-8,15.74c-3.08,6-10,6.51-13.8,1-.45-.66-.63-1.43-1.82-1.52-3-.24-4.46-1.66-5-4.59a6.3,6.3,0,0,1-.15-2.58c.89-3.79-.84-6.83-2.45-10q-15.4-30.45-30.68-61c-.87-1.74-1.5-2.66-3.76-1.73-3.28,1.34-6.25-.16-7.85-3.57a19.11,19.11,0,0,1-1-12.72,13.51,13.51,0,0,0-1.66-10.33c-2.88-5.12-5.4-10.44-8-15.71a3,3,0,0,0-3-2.07c-9.66-.3-16.42-13.06-11.47-21.37a10.11,10.11,0,0,1,4.74-4.31c25.2-10.73,51.27-17.78,77.72-18.25,21.94.26,42,4.57,61.59,11.24,5.32,1.81,10.54,3.89,15.77,6C796.14,647.63,798.41,658.31,791.34,666Zm30.3,110.32a11.57,11.57,0,1,1,11.57-11.57A11.57,11.57,0,0,1,821.64,776.33Zm0-37.45a20,20,0,1,1,20-20A20,20,0,0,1,821.64,738.88Z" style="fill:url(#d)"/><path d="M869.69,794.2q-5.87,4.92-12,9.55c-28.27,21.49-60.75,37.49-95.41,45.46A255,255,0,0,1,672,853.06a321.72,321.72,0,0,1-75.92-19.95,366.9,366.9,0,0,1-52.51-25.66,216.35,216.35,0,0,1-19.32-12.55c-1.91-1.44-2.89-3.78-1.58-6,1.11-1.89,4.13-3,6-1.58l.3.22c2.45,1.56,4.77,3.35,7.19,5q7.83,5.16,16,9.81a353.05,353.05,0,0,0,53.33,25c24.31,9,49.88,15.43,75.54,18,29.83,3,60.05.88,89-7.14,34.46-9.54,66.08-27.28,93.43-50.18a4.5,4.5,0,0,1,6.24,0C871.27,789.54,871.53,792.68,869.69,794.2Z" style="fill:#222651"/><path d="M888.24,689.22c.29-3.51.41-7.08.41-10.69a142.93,142.93,0,0,0-44.74-104l.41-.19a231.53,231.53,0,0,1,54.06,63.74C895.65,659.3,892.26,682.05,888.24,689.22Z" style="fill:#222651"/><path d="M509.37,678.53c0,1.1,0,2.2.05,3.27-3.3-6.87-6.09-28.08-8.28-48.47a230.93,230.93,0,0,1,51.24-59l1.33.56A143,143,0,0,0,509.37,678.53Z" style="fill:#222651"/><path d="M865.87,939.6q-5.46,3-11.06,5.79A306.64,306.64,0,0,1,764,973.88a359,359,0,0,1-85.1,2.34A433.83,433.83,0,0,1,559.1,947.75c-6.3-2.51-12.64-5.1-18.7-8.15a3.43,3.43,0,0,1-1.23-4.65,3.48,3.48,0,0,1,4.66-1.22l.28.14c2.24,1.06,4.49,2.11,6.75,3.11l3,1.33.84.35.08,0h0l.14.06.11.05,1.72.72q4.24,1.74,8.52,3.38a429.39,429.39,0,0,0,51,16,410.62,410.62,0,0,0,71.8,11.26,343.33,343.33,0,0,0,84.39-4.55,299.05,299.05,0,0,0,89.88-31.85C866.28,931.61,869.71,937.49,865.87,939.6Z" style="fill:#222651"/><path d="M699.91,618.15c-4.6-.77-161.65-25.68-119.83,157.72C579.05,774.2,450.39,564.71,699.91,618.15Z" style="fill:#c7cce9"/><path d="M841.67,718.86a20,20,0,1,1-20-20A20,20,0,0,1,841.67,718.86Z" style="fill:#c7cce9"/><path d="M833.21,764.76a11.57,11.57,0,1,1-11.57-11.57A11.57,11.57,0,0,1,833.21,764.76Z" style="fill:#c7cce9"/></svg>