<svg xmlns="http://www.w3.org/2000/svg" xmlns:xlink="http://www.w3.org/1999/xlink" viewBox="0 0 2500 1005.62"><defs><linearGradient id="a" x1="695.61" y1="452.19" x2="-278.59" y2="779.32" gradientUnits="userSpaceOnUse"><stop offset="0" stop-color="#75c7a7"/><stop offset="1" stop-color="#5351a2"/></linearGradient></defs><title>logo_blog-grandeilustracion</title><path d="M2118.61,492.82a10.9,10.9,0,0,0,1.56,5.66,13.26,13.26,0,0,0,4.77,4.55,28,28,0,0,0,8.06,3,51.8,51.8,0,0,0,11.44,1.11,50.68,50.68,0,0,0,11.49-1.18,28.7,28.7,0,0,0,8.6-3.36,16.36,16.36,0,0,0,5.39-5.18,12.34,12.34,0,0,0,1.87-6.63,8,8,0,0,0-1.87-5.54,12.13,12.13,0,0,0-5.08-3.23,37.19,37.19,0,0,0-7.39-1.68,69,69,0,0,0-8.82-.54h-9.44a34.48,34.48,0,0,1-9.18-1.2,26,26,0,0,0-8.24,5.89A11.92,11.92,0,0,0,2118.61,492.82Z" style="fill:none"/><path d="M2026.77,592.16c-.21-.64-.42-1.32-.63-2-.21.71-.41,1.39-.62,2s-.42,1.22-.63,1.76L2012,625.71h28.24l-12.87-31.84C2027.18,593.37,2027,592.8,2026.77,592.16Z" style="fill:none"/><path d="M1774.73,385.78a38.73,38.73,0,0,0-14.25-9.79,49.23,49.23,0,0,0-18.62-3.39h-30.37v99.67h30.37a49.23,49.23,0,0,0,18.62-3.39,38.88,38.88,0,0,0,14.25-9.75,43.76,43.76,0,0,0,9.08-15.63,70.43,70.43,0,0,0,0-42A44.33,44.33,0,0,0,1774.73,385.78Z" style="fill:none"/><path d="M1896.48,413.26a19.92,19.92,0,0,0-7.17-5.16,24.12,24.12,0,0,0-9.66-1.83q-11.49,0-18.08,6.63t-8.2,18.4h49.08a32.4,32.4,0,0,0-1.51-10.11A22.57,22.57,0,0,0,1896.48,413.26Z" style="fill:none"/><path d="M1495.59,612.84a12.42,12.42,0,0,0,3.5-4.49,14.15,14.15,0,0,0,1.2-5.93q0-6.72-4.41-10t-12.83-3.25h-11.53v27.52h11a26.21,26.21,0,0,0,7.51-1A16.17,16.17,0,0,0,1495.59,612.84Z" style="fill:none"/><path d="M1758.8,592.16c-.2-.64-.41-1.32-.62-2-.21.71-.42,1.39-.62,2s-.42,1.22-.63,1.76l-12.87,31.79h28.24l-12.87-31.84Q1759.12,593.12,1758.8,592.16Z" style="fill:none"/><path d="M713.36,830.89c-4.13,2.35-40.56,3.55-49.34,3.23a14.47,14.47,0,0,1-1.54-.1h0l-1.73-.21c-14.57-1.57-26.4,3.05-37.54,14.67l-1.25,1.34,0,0-1,1.11c-1.16,1.31-2.31,2.69-3.43,4.15-4.8,6.17,1.56,14.51,9.27,12.17,16.11-4.91,73.36,0,90.22-5.09C724.55,859.88,743.64,813.76,713.36,830.89Z" style="fill:none"/><path d="M2231.82,596.59a21.78,21.78,0,0,0-8-5.43,27.66,27.66,0,0,0-10.37-1.87h-18.4v55.62h18.4a27.86,27.86,0,0,0,10.37-1.87,22,22,0,0,0,8-5.43,24.83,24.83,0,0,0,5.14-8.73,39,39,0,0,0,0-23.56A24.66,24.66,0,0,0,2231.82,596.59Z" style="fill:none"/><path d="M2143.64,405.91q-9.53,0-14.56,4.9t-5,13.18a20.19,20.19,0,0,0,1.29,7.35,15.83,15.83,0,0,0,3.78,5.75,17.33,17.33,0,0,0,6.15,3.74,24.26,24.26,0,0,0,8.37,1.33,25,25,0,0,0,8.51-1.33,17.33,17.33,0,0,0,6.19-3.74,15.36,15.36,0,0,0,3.74-5.75,20.84,20.84,0,0,0,1.25-7.35q0-8.28-5-13.18T2143.64,405.91Z" style="fill:none"/><path d="M887.14,212.94c-15.07-12.35-63.56-80.95-70.24-38.8-2,12.75-49.65,8.94-66.2,7.42s-17.36,25.49,16.15,19A139.74,139.74,0,0,1,817,200.4c9.34,1.66,16.83,8.47,18.47,17.3,3.41,18.29-10.44,38.73-25.83,50.87-11.2,8.85-79.92,8.47-78.44,28,3.24,42.8,64.5,43.41,86.92,80.83a317.75,317.75,0,0,1,45.46,163.27c0,74.63-30.06,174.42-60,190.91-14,7.7,1.23,56.94,16.71,97.47,9.74,25.5,43.56,33.85,65.36,16.17L886,845c61.68-49.46,119.62-179.56,119.62-304.28S987,294.8,887.14,212.94Z" style="fill:#5351a2"/><path d="M419.08,263.41a335.38,335.38,0,0,0-78.06,30c-9.82,5.25-16,15-16,25.64V768.53c0,11.86,7.56,22.55,19.19,27.1,18.53,7.27,47.33,18.22,72,26.65,20.34,7,41.84-7.19,41.84-27.58V291.85C458.06,272.64,438.8,258.54,419.08,263.41Z" style="fill:#5351a2"/><path d="M720.92,786.79c-19.52,10.83-41.43,22.36-47.2,22.92-17.18,1.7-33.42,3.3-43.93,6.5-11.8,3.57-27,7.17-32,23.15-7.17,23.28-161.26,52.19-294.47-36.82-85-56.79-130.78-112.78-131.86-261.85-.6-83.65,34.9-172.31,90.08-237.79,63.47-75.32,215-126.1,243.78-51.95,6.06,15.61,1.09,33.76,4.83,35.84a9.85,9.85,0,0,0,9.3.08c14.16-7.3,11.63-21.39,9.6-32.7-2.56-14.38,40.17-78.88,50.74-8.15,9.67,64.76.95,133.85,12.25,143.65,7.24,6.28,15,7.93,21.36,4.5,10-5.37,11.79-21.09,5.61-48-4.31-18.75,2.84-36.24,21.24-52,12.28-10.5,28.3-19.1,44.85-25.71,3-1.19,6-2.32,8.94-3.38.69-.25,1.37-.49,2.06-.72,30.09-10.45,59.43-14.4,68.63-11.62,19.61,5.91,29-4.09,32.16-8.66,6.46-9.42,6.28-23.78-.35-30.74a13.34,13.34,0,0,0-15.87-2.66c-16.38,7.81-63.52-.85-84.09-5.19a10.9,10.9,0,0,1-8.92-11.21,2,2,0,0,1,.13-.58c1.32-3.39,15.25-35.75,61.4-26.12a11.88,11.88,0,0,0,9.18-2.16c16.83-11.17,1.89-35.94-17.21-28.7-27.38,10.38-59,21.15-65.49,18.15-15.8-7.35-15.83-19.22-9.22-31.53,13.54-25.19-.3-55.66-28.91-64.07-36.25-10.66-68-25.33-49.14-41.26,13.32-11.23-21.79-29.28-23.39-8.37-.69,9.14-14.76,16.8-18.22,29-2.72,9.53-15.47,12.62-22.66,5.44-5.28-5.31-10.24-10.7-12.42-14.29-5-8.13-14.52-2.77-18.07,5.93-1.8,4.4-4.21,16.8-5.68,25.06-1,5.61-32.41,32.11-17.93-7.5,11.3-30.91-48.44-33.19-37.49-4.27,3.79,10-9,16.24-12.23,20.48-4.69,6.13-219.22,29.35-312,155.25C37,321.73,0,368.52,0,540.69c0,76.86,32.11,215.82,105.62,293,0,0,68,72.2,74.63,64.37,18.08-21.42,34.71-30.34,42.84-3.92,2.52,8.17,5.09,18.33-3,17.12-5.13-.78-21.15,7.35-9.1,18.89l.42.29c5.62,3.85,121.84,59.5,237.3,72.61,100.37,11.39,199.62-15.79,232.09-56.3,18.37-22.91,103.56-13.51,120.9-27.57,34.51-28-22.13-82.21-34.22-116C761,785,738.42,777.08,720.92,786.79ZM717,862.18c-16.86,5.13-74.11.18-90.22,5.09-7.71,2.34-14.07-6-9.27-12.17,1.12-1.46,2.27-2.84,3.43-4.15l1-1.11,0,0,1.25-1.34c11.14-11.62,23-16.24,37.54-14.67l1.73.21h0a14.47,14.47,0,0,0,1.54.1c8.78.32,45.21-.88,49.34-3.23C743.64,813.76,724.55,859.88,717,862.18Z" style="fill:url(#a)"/><path d="M1237.56,459.89a4.52,4.52,0,0,0-2.94,1.33,55,55,0,0,1-6.72,5.21,35.31,35.31,0,0,1-7.22,3.61,42.24,42.24,0,0,1-8.41,2.1,71.86,71.86,0,0,1-10.25.66,44.74,44.74,0,0,1-17.45-3.38,39.49,39.49,0,0,1-14-9.84,47,47,0,0,1-9.35-15.81,61.51,61.51,0,0,1-3.43-21.29,60.34,60.34,0,0,1,3.43-20.93,45.47,45.47,0,0,1,9.57-15.86,42.13,42.13,0,0,1,14.65-10,48.69,48.69,0,0,1,18.75-3.51,53.76,53.76,0,0,1,10.07.84,47.88,47.88,0,0,1,7.66,2.1,37.18,37.18,0,0,1,5.7,2.67q2.4,1.43,4.18,2.67c1.19.83,2.21,1.53,3.08,2.09a4.45,4.45,0,0,0,2.45.85,3.88,3.88,0,0,0,2.31-.58,6.07,6.07,0,0,0,1.43-1.47l5.61-7.93a61.36,61.36,0,0,0-18.13-11.84q-10.2-4.37-24.27-4.37a68.91,68.91,0,0,0-26,4.77,58.78,58.78,0,0,0-20.26,13.4A60.35,60.35,0,0,0,1144.8,396a72.3,72.3,0,0,0-4.68,26.45,77,77,0,0,0,4.37,26.45,60.12,60.12,0,0,0,12.29,20.62,54.74,54.74,0,0,0,19.15,13.36,63.35,63.35,0,0,0,25,4.77q15.76,0,26.94-5.08a54.58,54.58,0,0,0,19-14.16l-6.77-7.39A3.58,3.58,0,0,0,1237.56,459.89Z" style="fill:#fff"/><path d="M1327.43,394.42a25.34,25.34,0,0,0-16,5.3A41.41,41.41,0,0,0,1300,414.46l-1.07-14.07a6,6,0,0,0-1.34-3.38c-.65-.66-1.84-1-3.56-1H1285v90.22h15.85V428.8q3.73-9.17,9.31-14A20.42,20.42,0,0,1,1324,410a23.89,23.89,0,0,1,7.21.85,13.94,13.94,0,0,0,3.83.84,2.67,2.67,0,0,0,2.76-2.22l2-11.85a23.34,23.34,0,0,0-5.61-2.36A24.88,24.88,0,0,0,1327.43,394.42Z" style="fill:#fff"/><path d="M1380,378a10.54,10.54,0,0,0,4.32.89,10.9,10.9,0,0,0,4.36-.89,11.68,11.68,0,0,0,3.61-2.46,12.15,12.15,0,0,0,2.49-3.56,10,10,0,0,0,.94-4.32,10.62,10.62,0,0,0-.94-4.41,12.06,12.06,0,0,0-2.49-3.65,11.65,11.65,0,0,0-3.61-2.45,10.9,10.9,0,0,0-4.36-.89,10.54,10.54,0,0,0-4.32.89,11.83,11.83,0,0,0-3.57,2.45,11.6,11.6,0,0,0-2.45,3.65,11.25,11.25,0,0,0-.89,4.41A10.54,10.54,0,0,0,1374,372a11.67,11.67,0,0,0,2.45,3.56A11.87,11.87,0,0,0,1380,378Z" style="fill:#fff"/><rect x="1376.33" y="396.03" width="15.85" height="90.23" style="fill:#fff"/><path d="M1485.88,479.35a25.1,25.1,0,0,0,6.59-9.17,29.42,29.42,0,0,0,2.23-11.54,20.15,20.15,0,0,0-2-9.31,20.51,20.51,0,0,0-5.3-6.54,31.07,31.07,0,0,0-7.48-4.46c-2.8-1.18-5.66-2.27-8.6-3.25s-5.8-1.9-8.59-2.76a45.83,45.83,0,0,1-7.49-3,17.65,17.65,0,0,1-5.3-4,8.55,8.55,0,0,1-2-5.79,11.12,11.12,0,0,1,1.2-5.12,12.4,12.4,0,0,1,3.48-4.14,17.22,17.22,0,0,1,5.47-2.81,23.81,23.81,0,0,1,7.22-1,28,28,0,0,1,8,1,38.83,38.83,0,0,1,5.83,2.23q2.44,1.2,4.14,2.18a6.25,6.25,0,0,0,3,1,3.5,3.5,0,0,0,3.29-2l3.57-5.79a38,38,0,0,0-12.25-7.7,43.11,43.11,0,0,0-16-2.81,40.06,40.06,0,0,0-13.62,2.14,30.69,30.69,0,0,0-10.07,5.74,24.34,24.34,0,0,0-6.23,8.38,23.88,23.88,0,0,0-2.14,9.93,22.1,22.1,0,0,0,2,9.84,20.79,20.79,0,0,0,5.3,6.81,30.27,30.27,0,0,0,7.53,4.59q4.23,1.83,8.64,3.25T1465,448a42.67,42.67,0,0,1,7.52,3,16.73,16.73,0,0,1,5.3,4.18,9.46,9.46,0,0,1,2,6.19,14.52,14.52,0,0,1-1.12,5.7,12.74,12.74,0,0,1-3.43,4.72,17.08,17.08,0,0,1-5.78,3.26,24.87,24.87,0,0,1-8.11,1.2,28,28,0,0,1-9-1.25,33.25,33.25,0,0,1-6.15-2.76q-2.54-1.51-4.32-2.76a6,6,0,0,0-3.38-1.25,4.78,4.78,0,0,0-2.58.62,5.43,5.43,0,0,0-1.7,1.79l-3.74,6.05a43.38,43.38,0,0,0,13,7.89,45.68,45.68,0,0,0,17.1,3.07,43.81,43.81,0,0,0,14.61-2.23A31.78,31.78,0,0,0,1485.88,479.35Z" style="fill:#fff"/><path d="M1550.86,359.64a11.77,11.77,0,0,0-3.61-2.45,10.9,10.9,0,0,0-4.36-.89,10.54,10.54,0,0,0-4.32.89,11.83,11.83,0,0,0-3.57,2.45,11.6,11.6,0,0,0-2.45,3.65,11.25,11.25,0,0,0-.89,4.41,10.54,10.54,0,0,0,.89,4.32,11.67,11.67,0,0,0,2.45,3.56,11.87,11.87,0,0,0,3.57,2.46,10.54,10.54,0,0,0,4.32.89,10.9,10.9,0,0,0,4.36-.89,11.8,11.8,0,0,0,3.61-2.46,12.15,12.15,0,0,0,2.49-3.56,10.1,10.1,0,0,0,.94-4.32,10.78,10.78,0,0,0-.94-4.41A12.06,12.06,0,0,0,1550.86,359.64Z" style="fill:#fff"/><rect x="1534.87" y="396.03" width="15.85" height="90.23" style="fill:#fff"/><path d="M1651.24,449.33a20.51,20.51,0,0,0-5.3-6.54,31.13,31.13,0,0,0-7.49-4.46c-2.79-1.18-5.65-2.27-8.59-3.25s-5.81-1.9-8.6-2.76a46.07,46.07,0,0,1-7.48-3,17.65,17.65,0,0,1-5.3-4,8.55,8.55,0,0,1-2-5.79,11.12,11.12,0,0,1,1.2-5.12,12.4,12.4,0,0,1,3.48-4.14,17.22,17.22,0,0,1,5.47-2.81,23.81,23.81,0,0,1,7.22-1,27.9,27.9,0,0,1,8,1,39,39,0,0,1,5.84,2.23q2.44,1.2,4.14,2.18a6.25,6.25,0,0,0,3,1,3.5,3.5,0,0,0,3.29-2l3.57-5.79a38,38,0,0,0-12.25-7.7,43.11,43.11,0,0,0-16-2.81,40.16,40.16,0,0,0-13.63,2.14,30.64,30.64,0,0,0-10.06,5.74,24.5,24.5,0,0,0-6.24,8.38,24,24,0,0,0-2.13,9.93,22,22,0,0,0,2,9.84,20.79,20.79,0,0,0,5.3,6.81,30.27,30.27,0,0,0,7.53,4.59q4.23,1.83,8.64,3.25c2.93,1,5.82,1.86,8.64,2.72a43,43,0,0,1,7.52,3,16.73,16.73,0,0,1,5.3,4.18,9.46,9.46,0,0,1,2,6.19,14.71,14.71,0,0,1-1.12,5.7,12.74,12.74,0,0,1-3.43,4.72,17,17,0,0,1-5.79,3.26,24.76,24.76,0,0,1-8.1,1.2,28,28,0,0,1-9-1.25,33.25,33.25,0,0,1-6.15-2.76q-2.54-1.51-4.32-2.76a6,6,0,0,0-3.38-1.25,4.84,4.84,0,0,0-2.59.62,5.51,5.51,0,0,0-1.69,1.79l-3.74,6.05a43.26,43.26,0,0,0,13,7.89,45.68,45.68,0,0,0,17.1,3.07,43.71,43.71,0,0,0,14.6-2.23,31.73,31.73,0,0,0,10.69-6.1,25.1,25.1,0,0,0,6.59-9.17,29.42,29.42,0,0,0,2.23-11.54A20.15,20.15,0,0,0,1651.24,449.33Z" style="fill:#fff"/><path d="M1787.37,376.21a56.89,56.89,0,0,0-19.86-13,69.24,69.24,0,0,0-25.65-4.58h-47.74V486.25h47.74a69.24,69.24,0,0,0,25.65-4.58,57.2,57.2,0,0,0,19.86-13,58,58,0,0,0,12.83-20.13,77.29,77.29,0,0,0,0-52.2A58.31,58.31,0,0,0,1787.37,376.21Zm-3.56,67.29a43.76,43.76,0,0,1-9.08,15.63,38.88,38.88,0,0,1-14.25,9.75,49.23,49.23,0,0,1-18.62,3.39h-30.37V372.6h30.37a49.23,49.23,0,0,1,18.62,3.39,38.73,38.73,0,0,1,14.25,9.79,44.33,44.33,0,0,1,9.08,15.68,70.43,70.43,0,0,1,0,42Z" style="fill:#fff"/><path d="M1906.1,405.16a33.54,33.54,0,0,0-11.84-7.84,40.37,40.37,0,0,0-15-2.72,43.63,43.63,0,0,0-17.63,3.43,38.29,38.29,0,0,0-13.27,9.44,41.51,41.51,0,0,0-8.33,14.21,52.54,52.54,0,0,0-2.9,17.63,61.37,61.37,0,0,0,3.21,20.67,42.54,42.54,0,0,0,9,15.1,37.91,37.91,0,0,0,13.63,9.26,46,46,0,0,0,17.23,3.16,58.46,58.46,0,0,0,9.89-.85,55.11,55.11,0,0,0,9.66-2.54,43.64,43.64,0,0,0,8.78-4.31,30.24,30.24,0,0,0,7-6.2l-4.45-5.79a3.5,3.5,0,0,0-3-1.51,6.87,6.87,0,0,0-3.6,1.38,57.68,57.68,0,0,1-5.22,3,49.81,49.81,0,0,1-7.43,3,34,34,0,0,1-10.29,1.38,30.67,30.67,0,0,1-11.58-2.09,23.71,23.71,0,0,1-8.91-6.33,30.41,30.41,0,0,1-5.87-10.55,49.75,49.75,0,0,1-2.32-14.88h60a3.33,3.33,0,0,0,3-1.24c.53-.83.8-2.5.8-5a48.92,48.92,0,0,0-2.8-17.15A35.67,35.67,0,0,0,1906.1,405.16Zm-52.73,26.14q1.61-11.76,8.2-18.4t18.08-6.63a24.12,24.12,0,0,1,9.66,1.83,19.92,19.92,0,0,1,7.17,5.16,22.57,22.57,0,0,1,4.46,7.93,32.4,32.4,0,0,1,1.51,10.11Z" style="fill:#fff"/><path d="M2009.24,470.18a29.6,29.6,0,0,0,2.23-11.54,20,20,0,0,0-2-9.31,20.24,20.24,0,0,0-5.3-6.54,30.88,30.88,0,0,0-7.48-4.46c-2.79-1.18-5.65-2.27-8.59-3.25s-5.81-1.9-8.6-2.76a46.07,46.07,0,0,1-7.48-3,17.52,17.52,0,0,1-5.3-4,8.5,8.5,0,0,1-2-5.79,11.12,11.12,0,0,1,1.2-5.12,12.48,12.48,0,0,1,3.47-4.14,17.27,17.27,0,0,1,5.48-2.81,23.76,23.76,0,0,1,7.22-1,28,28,0,0,1,8,1,39,39,0,0,1,5.84,2.23q2.44,1.2,4.14,2.18a6.19,6.19,0,0,0,3,1,3.5,3.5,0,0,0,3.29-2l3.56-5.79a37.85,37.85,0,0,0-12.24-7.7,43.15,43.15,0,0,0-16-2.81,40.16,40.16,0,0,0-13.63,2.14,30.64,30.64,0,0,0-10.06,5.74,24.37,24.37,0,0,0-6.24,8.38,24,24,0,0,0-2.14,9.93,22,22,0,0,0,2,9.84,20.66,20.66,0,0,0,5.3,6.81,30,30,0,0,0,7.52,4.59q4.23,1.83,8.64,3.25t8.64,2.72a43.1,43.1,0,0,1,7.53,3,16.84,16.84,0,0,1,5.3,4.18,9.45,9.45,0,0,1,2,6.19,14.7,14.7,0,0,1-1.11,5.7,12.86,12.86,0,0,1-3.43,4.72,17,17,0,0,1-5.79,3.26,24.84,24.84,0,0,1-8.1,1.2,28,28,0,0,1-9-1.25,33,33,0,0,1-6.15-2.76q-2.54-1.51-4.32-2.76a6,6,0,0,0-3.38-1.25,4.84,4.84,0,0,0-2.59.62,5.41,5.41,0,0,0-1.69,1.79l-3.74,6.05a43.33,43.33,0,0,0,13,7.89,45.76,45.76,0,0,0,17.1,3.07,43.73,43.73,0,0,0,14.61-2.23,31.73,31.73,0,0,0,10.69-6.1A25.1,25.1,0,0,0,2009.24,470.18Z" style="fill:#fff"/><rect x="2051.63" y="396.03" width="15.85" height="90.23" style="fill:#fff"/><path d="M2051.77,375.58a11.82,11.82,0,0,0,3.56,2.46,10.57,10.57,0,0,0,4.32.89A11,11,0,0,0,2064,378a11.75,11.75,0,0,0,3.6-2.46,12.15,12.15,0,0,0,2.49-3.56,10,10,0,0,0,.94-4.32,10.62,10.62,0,0,0-.94-4.41,12.06,12.06,0,0,0-2.49-3.65,11.73,11.73,0,0,0-3.6-2.45,11,11,0,0,0-4.37-.89,10.57,10.57,0,0,0-4.32.89,11.79,11.79,0,0,0-3.56,2.45,11.43,11.43,0,0,0-2.45,3.65,11.07,11.07,0,0,0-.89,4.41,10.38,10.38,0,0,0,.89,4.32A11.49,11.49,0,0,0,2051.77,375.58Z" style="fill:#fff"/><path d="M2154.64,395.8a44.9,44.9,0,0,0-11-1.29,44.33,44.33,0,0,0-13.76,2.05,32.49,32.49,0,0,0-10.82,5.83,26.54,26.54,0,0,0-7.08,9.18,27.63,27.63,0,0,0-2.54,12,27.19,27.19,0,0,0,3.78,14.47,28.11,28.11,0,0,0,10.47,9.93,23.85,23.85,0,0,0-5,3.29,23.36,23.36,0,0,0-3.6,3.92,16,16,0,0,0-2.19,4.13,12.67,12.67,0,0,0-.71,4,12.84,12.84,0,0,0,2.27,8,16,16,0,0,0,6.1,4.75A29.08,29.08,0,0,0,2109,483.5a16.35,16.35,0,0,0-4.23,11.37,18.05,18.05,0,0,0,2.45,9.05,22.87,22.87,0,0,0,7.35,7.62,40.41,40.41,0,0,0,12.33,5.26,68.29,68.29,0,0,0,17.33,2,56.85,56.85,0,0,0,17.72-2.57,42.68,42.68,0,0,0,13.27-6.85,30.79,30.79,0,0,0,8.33-9.78,24.12,24.12,0,0,0,2.89-11.36q0-6.31-2.58-10.28a18.12,18.12,0,0,0-6.86-6.22,33.33,33.33,0,0,0-9.71-3.25,61.62,61.62,0,0,0-11.08-1h-11.09a57.61,57.61,0,0,1-9.71-.74,17.88,17.88,0,0,1-6.86-2.44,5.62,5.62,0,0,1-2.58-5,7.26,7.26,0,0,1,1.47-4.14,15.24,15.24,0,0,1,4.32-4,45.55,45.55,0,0,0,11.93,1.51,43.13,43.13,0,0,0,13.58-2,31.71,31.71,0,0,0,10.69-5.88,27.23,27.23,0,0,0,7-9.22,27.8,27.8,0,0,0,2.54-12,27.45,27.45,0,0,0-3-12.92l10.24-1.42c2.5-.54,3.74-1.78,3.74-3.74v-5.88H2164A34.59,34.59,0,0,0,2154.64,395.8ZM2130,478.64a34.48,34.48,0,0,0,9.18,1.2h9.44a69,69,0,0,1,8.82.54,37.19,37.19,0,0,1,7.39,1.68,12.13,12.13,0,0,1,5.08,3.23,8,8,0,0,1,1.87,5.54,12.34,12.34,0,0,1-1.87,6.63,16.36,16.36,0,0,1-5.39,5.18,28.7,28.7,0,0,1-8.6,3.36,50.68,50.68,0,0,1-11.49,1.18,51.8,51.8,0,0,1-11.44-1.11,28,28,0,0,1-8.06-3,13.26,13.26,0,0,1-4.77-4.55,10.9,10.9,0,0,1-1.56-5.66,11.92,11.92,0,0,1,3.16-8.29A26,26,0,0,1,2130,478.64Zm32.07-47.3a15.36,15.36,0,0,1-3.74,5.75,17.33,17.33,0,0,1-6.19,3.74,25,25,0,0,1-8.51,1.33,24.26,24.26,0,0,1-8.37-1.33,17.33,17.33,0,0,1-6.15-3.74,15.83,15.83,0,0,1-3.78-5.75,20.19,20.19,0,0,1-1.29-7.35q0-8.28,5-13.18t14.56-4.9q9.62,0,14.65,4.9t5,13.18A20.84,20.84,0,0,1,2162.08,431.34Z" style="fill:#fff"/><path d="M2289.49,404a25.18,25.18,0,0,0-9.44-6.95A32.63,32.63,0,0,0,2267,394.6a34.18,34.18,0,0,0-16.79,4,50.78,50.78,0,0,0-13.14,10.51l-1.24-9.8a4,4,0,0,0-4.28-3.29h-9.44v90.22H2238V419.81a43.43,43.43,0,0,1,11.27-9.18,26.73,26.73,0,0,1,13.14-3.38q9.62,0,14.29,5.65t4.68,15.9v57.45h15.85V428.8a47,47,0,0,0-2-14A30.6,30.6,0,0,0,2289.49,404Z" style="fill:#fff"/><path d="M2381.27,470.4a2.93,2.93,0,0,0-1.64.67q-.95.66-2.28,1.47a18.33,18.33,0,0,1-3.16,1.46,12.45,12.45,0,0,1-4.32.67,9.63,9.63,0,0,1-7.12-2.76q-2.76-2.76-2.76-8.46V409.3h25.83V397.81H2360V366.72h-8a3.73,3.73,0,0,0-2.5.85,3.37,3.37,0,0,0-1.15,2.18l-3.65,27.88-14.79,1.87v6.32a3.3,3.3,0,0,0,1,2.63,3.52,3.52,0,0,0,2.41.85h10.86v55.22q0,11.22,5.75,17.19t16.43,6a33.43,33.43,0,0,0,11.93-2.19,29.35,29.35,0,0,0,9.89-6l-4.63-7.57A2.74,2.74,0,0,0,2381.27,470.4Z" style="fill:#fff"/><path d="M2487.35,396a4.66,4.66,0,0,0-2.8.93,5,5,0,0,0-1.83,2.36l-23.42,56.74c-.54,1.37-1,2.7-1.43,4s-.83,2.64-1.25,4c-.3-1.36-.64-2.7-1-4s-.85-2.62-1.38-3.92l-24.14-56.83a6.45,6.45,0,0,0-1.69-2.27,4.68,4.68,0,0,0-3.21-1h-13.72l37.24,85-16.48,35.8H2444a5.39,5.39,0,0,0,3.69-1.07,8.21,8.21,0,0,0,2-2.85L2500,396Z" style="fill:#fff"/><path d="M1439.86,638a.88.88,0,0,0-.47.11,2.11,2.11,0,0,0-.42.29,30.93,30.93,0,0,1-3.79,3,22.07,22.07,0,0,1-4.14,2.19,23.54,23.54,0,0,1-4.88,1.33,36.34,36.34,0,0,1-6,.45,25.54,25.54,0,0,1-10-1.94,23,23,0,0,1-8-5.57,25.77,25.77,0,0,1-5.29-8.88,34.62,34.62,0,0,1-1.92-11.94,33.64,33.64,0,0,1,1.94-11.73,25.75,25.75,0,0,1,5.41-8.91,23.61,23.61,0,0,1,8.28-5.65,27.5,27.5,0,0,1,10.56-2,30,30,0,0,1,5.56.46,26.78,26.78,0,0,1,4.32,1.16,18.41,18.41,0,0,1,3.23,1.52c.91.55,1.68,1,2.32,1.51l1.58,1.16a1.9,1.9,0,0,0,1,.47,1.25,1.25,0,0,0,1.12-.54l1.38-2a35.54,35.54,0,0,0-4.28-3.3,24.85,24.85,0,0,0-4.65-2.38,28.6,28.6,0,0,0-5.32-1.47,35.81,35.81,0,0,0-6.28-.51,32.6,32.6,0,0,0-12.54,2.33,28.26,28.26,0,0,0-9.75,6.59,29.82,29.82,0,0,0-6.33,10.18,36.63,36.63,0,0,0-2.25,13.09,38.34,38.34,0,0,0,2.19,13.28,29.76,29.76,0,0,0,6.08,10.17,26.37,26.37,0,0,0,9.35,6.5,30.63,30.63,0,0,0,12,2.3,37.23,37.23,0,0,0,7.19-.65,30,30,0,0,0,6-1.82,27.08,27.08,0,0,0,5.06-2.85,29.4,29.4,0,0,0,4.27-3.77l-1.78-1.91A1,1,0,0,0,1439.86,638Z" style="fill:#fff"/><path d="M1486.84,619.57a25.07,25.07,0,0,0,7.44-1.9,19.09,19.09,0,0,0,5.63-3.69,15.39,15.39,0,0,0,3.58-5.23,16.8,16.8,0,0,0,1.25-6.6q0-8.14-5.39-12.35t-16.3-4.21H1467v63h4.54V620.1h8.24a6.93,6.93,0,0,1,2.69.4,4.51,4.51,0,0,1,1.63,1.39l20.17,25.56a3.36,3.36,0,0,0,1,.89,2.6,2.6,0,0,0,1.23.26h4l-21.69-27.25A7.12,7.12,0,0,0,1486.84,619.57Zm-4.37-2.85h-11V589.2h11.53q8.43,0,12.83,3.25t4.41,10a14.15,14.15,0,0,1-1.2,5.93,12.42,12.42,0,0,1-3.5,4.49,16.17,16.17,0,0,1-5.61,2.88A26.21,26.21,0,0,1,1482.47,616.72Z" style="fill:#fff"/><rect x="1532.4" y="585.59" width="4.59" height="63.02" style="fill:#fff"/><path d="M1594.65,619.35a21.25,21.25,0,0,0-5.06-3q-2.83-1.17-5.82-2.16c-2-.65-3.94-1.31-5.82-2a22.68,22.68,0,0,1-5.06-2.47,12.19,12.19,0,0,1-3.59-3.56,9.53,9.53,0,0,1-1.36-5.3,12.23,12.23,0,0,1,.91-4.68,11.38,11.38,0,0,1,2.68-3.92,12.78,12.78,0,0,1,4.38-2.67,17.25,17.25,0,0,1,6-1,17,17,0,0,1,5.79.85,19.34,19.34,0,0,1,3.91,1.85,18.87,18.87,0,0,1,2.48,1.82,2.58,2.58,0,0,0,1.5.83,1.25,1.25,0,0,0,1.15-.76l1.07-2a21.1,21.1,0,0,0-7.11-4.77,23.77,23.77,0,0,0-8.81-1.55,21,21,0,0,0-7.78,1.35,17.46,17.46,0,0,0-5.73,3.61,15.22,15.22,0,0,0-3.52,5.19,16,16,0,0,0-1.21,6.1,15,15,0,0,0,1.36,6.75,13.83,13.83,0,0,0,3.59,4.5,20.15,20.15,0,0,0,5.07,3q2.82,1.15,5.82,2.09t5.82,1.92a23.48,23.48,0,0,1,5.06,2.42,11.88,11.88,0,0,1,3.59,3.61,10.12,10.12,0,0,1,1.36,5.5,15.57,15.57,0,0,1-1.07,5.77,13.32,13.32,0,0,1-3.1,4.65,14.62,14.62,0,0,1-5,3.1,18.7,18.7,0,0,1-6.69,1.13,19.6,19.6,0,0,1-8.65-1.85A16.9,16.9,0,0,1,1568,642c-.84-.61-1.55-1.17-2.14-1.69s-1.1-1-1.52-1.31a1.79,1.79,0,0,0-1-.54,1.54,1.54,0,0,0-1.24.67l-1.25,2a25.35,25.35,0,0,0,7.88,6,24.17,24.17,0,0,0,10.73,2.21,23.1,23.1,0,0,0,8.56-1.49,18.63,18.63,0,0,0,6.32-4.08,17.35,17.35,0,0,0,3.94-6.08,20.29,20.29,0,0,0,1.36-7.46,13.88,13.88,0,0,0-1.36-6.48A13.69,13.69,0,0,0,1594.65,619.35Z" style="fill:#fff"/><rect x="1623.38" y="585.59" width="4.59" height="63.02" style="fill:#fff"/><path d="M1685.63,619.35a21.06,21.06,0,0,0-5.06-3q-2.83-1.17-5.82-2.16t-5.82-2a22.68,22.68,0,0,1-5.06-2.47,12.19,12.19,0,0,1-3.59-3.56,9.53,9.53,0,0,1-1.36-5.3,12.23,12.23,0,0,1,.91-4.68,11.51,11.51,0,0,1,2.68-3.92,12.78,12.78,0,0,1,4.38-2.67,17.27,17.27,0,0,1,6.06-1,17,17,0,0,1,5.78.85,19.34,19.34,0,0,1,3.91,1.85,18.87,18.87,0,0,1,2.48,1.82,2.58,2.58,0,0,0,1.5.83,1.28,1.28,0,0,0,1.16-.76l1.06-2a21.1,21.1,0,0,0-7.11-4.77,23.71,23.71,0,0,0-8.8-1.55,21.06,21.06,0,0,0-7.79,1.35,17.46,17.46,0,0,0-5.73,3.61,15.22,15.22,0,0,0-3.52,5.19,16,16,0,0,0-1.2,6.1,14.89,14.89,0,0,0,1.36,6.75,13.58,13.58,0,0,0,3.59,4.5,19.91,19.91,0,0,0,5.06,3q2.83,1.15,5.82,2.09t5.82,1.92a23.48,23.48,0,0,1,5.06,2.42,11.77,11.77,0,0,1,3.59,3.61,10.12,10.12,0,0,1,1.36,5.5,15.57,15.57,0,0,1-1.07,5.77,13.18,13.18,0,0,1-3.1,4.65,14.62,14.62,0,0,1-5,3.1,18.62,18.62,0,0,1-6.69,1.13,20.37,20.37,0,0,1-4.86-.53,20.68,20.68,0,0,1-3.79-1.32A16.9,16.9,0,0,1,1659,642c-.83-.61-1.55-1.17-2.14-1.69s-1.1-1-1.52-1.31a1.77,1.77,0,0,0-1-.54,1.55,1.55,0,0,0-1.25.67l-1.25,2a25.35,25.35,0,0,0,7.88,6,24.18,24.18,0,0,0,10.74,2.21,23.08,23.08,0,0,0,8.55-1.49,18.63,18.63,0,0,0,6.32-4.08,17.35,17.35,0,0,0,3.94-6.08,20.29,20.29,0,0,0,1.36-7.46,13.88,13.88,0,0,0-1.36-6.48A13.56,13.56,0,0,0,1685.63,619.35Z" style="fill:#fff"/><path d="M1755.91,585.59l-25.79,63h3.48a1.66,1.66,0,0,0,1.07-.35,2,2,0,0,0,.62-.85l7.39-18.3h31l7.44,18.3a2.18,2.18,0,0,0,.63.87,1.53,1.53,0,0,0,1,.33h3.52l-25.79-63Zm-11.85,40.12,12.87-31.79c.21-.54.42-1.12.63-1.76s.41-1.32.62-2c.21.71.42,1.39.62,2s.42,1.21.63,1.71l12.87,31.84Z" style="fill:#fff"/><path d="M1849.74,638.45a25.7,25.7,0,0,0,.14,2.58l-40.8-54.6a2,2,0,0,0-.76-.68,2.35,2.35,0,0,0-1-.16h-2.22v63h4v-53A25.09,25.09,0,0,0,1809,593l41,54.69a1.92,1.92,0,0,0,1.65.88h2.18v-63h-4Z" style="fill:#fff"/><rect x="1883.01" y="585.59" width="4.59" height="63.02" style="fill:#fff"/><path d="M1975,585.72a1.65,1.65,0,0,0-.72.71l-24.76,43.78a11.5,11.5,0,0,0-.64,1.32c-.2.46-.38.92-.56,1.4a17.92,17.92,0,0,0-1.16-2.67l-25.43-43.83a1.62,1.62,0,0,0-.73-.71,3.07,3.07,0,0,0-1-.13h-3.12v63h4V594.9a24.23,24.23,0,0,0-.13-2.5l25.47,44.09a2,2,0,0,0,1.78,1.16h.72a2,2,0,0,0,1.78-1.16l24.8-44a23.43,23.43,0,0,0-.13,2.45v53.7h4v-63H1976A2.8,2.8,0,0,0,1975,585.72Z" style="fill:#fff"/><path d="M2023.87,585.59l-25.79,63h3.48a1.66,1.66,0,0,0,1.07-.35,2,2,0,0,0,.62-.85l7.39-18.3h30.95l7.44,18.3a2.18,2.18,0,0,0,.63.87,1.53,1.53,0,0,0,1,.33h3.52l-25.79-63ZM2012,625.71l12.87-31.79c.21-.54.42-1.12.63-1.76s.41-1.32.62-2c.21.71.42,1.39.63,2s.41,1.21.62,1.71l12.87,31.84Z" style="fill:#fff"/><polygon points="2060.16 589.47 2082.43 589.47 2082.43 648.61 2086.97 648.61 2086.97 589.47 2109.11 589.47 2109.11 585.59 2060.16 585.59 2060.16 589.47" style="fill:#fff"/><polygon points="2128.92 648.61 2166.68 648.61 2166.68 644.82 2133.51 644.82 2133.51 618.54 2161.12 618.54 2161.12 614.85 2133.51 614.85 2133.51 589.37 2166.68 589.37 2166.68 585.59 2128.92 585.59 2128.92 648.61" style="fill:#fff"/><path d="M2235.18,594.05a26.74,26.74,0,0,0-9.49-6.28,33.12,33.12,0,0,0-12.24-2.18h-23v63h23a32.92,32.92,0,0,0,12.24-2.18,26.47,26.47,0,0,0,9.49-6.28,28.3,28.3,0,0,0,6.14-9.93,40.37,40.37,0,0,0,0-26.23A28.3,28.3,0,0,0,2235.18,594.05Zm1.78,34.83a24.83,24.83,0,0,1-5.14,8.73,22,22,0,0,1-8,5.43,27.86,27.86,0,0,1-10.37,1.87h-18.4V589.29h18.4a27.66,27.66,0,0,1,10.37,1.87,21.78,21.78,0,0,1,8,5.43,24.66,24.66,0,0,1,5.14,8.73,39,39,0,0,1,0,23.56Z" style="fill:#fff"/></svg>