<svg xmlns="http://www.w3.org/2000/svg" xmlns:xlink="http://www.w3.org/1999/xlink" viewBox="0 0 1342.46 540"><defs><linearGradient id="a" x1="373.53" y1="242.82" x2="-149.6" y2="418.48" gradientUnits="userSpaceOnUse"><stop offset="0" stop-color="#75c7a7"/><stop offset="1" stop-color="#5351a2"/></linearGradient></defs><title>logo_blogilustracion</title><path d="M1137.66,264.64a5.85,5.85,0,0,0,.84,3,7.15,7.15,0,0,0,2.55,2.44,15,15,0,0,0,4.33,1.63,27.72,27.72,0,0,0,6.15.6,27,27,0,0,0,6.17-.64,15.19,15.19,0,0,0,4.61-1.8,8.81,8.81,0,0,0,2.9-2.78,6.58,6.58,0,0,0,1-3.56,4.3,4.3,0,0,0-1-3,6.58,6.58,0,0,0-2.73-1.73,18.92,18.92,0,0,0-4-.9,35.87,35.87,0,0,0-4.73-.29h-5.07a18.51,18.51,0,0,1-4.93-.65,14,14,0,0,0-4.42,3.16A6.37,6.37,0,0,0,1137.66,264.64Z" style="fill:none"/><path d="M1088.34,318c-.11-.34-.23-.71-.34-1.09-.11.38-.22.75-.33,1.09s-.23.66-.34.94L1080.42,336h15.16l-6.91-17.1C1088.56,318.63,1088.45,318.32,1088.34,318Z" style="fill:none"/><path d="M953,207.16a20.78,20.78,0,0,0-7.66-5.26,26.41,26.41,0,0,0-10-1.82H919V253.6h16.31a26.22,26.22,0,0,0,10-1.82,21,21,0,0,0,7.66-5.23,23.64,23.64,0,0,0,4.88-8.4,37.88,37.88,0,0,0,0-22.57A23.82,23.82,0,0,0,953,207.16Z" style="fill:none"/><path d="M1018.38,221.91a10.74,10.74,0,0,0-3.85-2.77,13.09,13.09,0,0,0-5.19-1q-6.17,0-9.71,3.56a16.77,16.77,0,0,0-4.4,9.88h26.35a17.28,17.28,0,0,0-.81-5.43A12.17,12.17,0,0,0,1018.38,221.91Z" style="fill:none"/><path d="M803.11,329.09a6.67,6.67,0,0,0,1.87-2.42,7.56,7.56,0,0,0,.65-3.18,6.23,6.23,0,0,0-2.37-5.36c-1.58-1.16-3.87-1.74-6.89-1.74h-6.19v14.78h5.88a13.84,13.84,0,0,0,4-.54A8.78,8.78,0,0,0,803.11,329.09Z" style="fill:none"/><path d="M944.45,318c-.11-.34-.23-.71-.34-1.09-.11.38-.22.75-.33,1.09s-.23.66-.34.94L936.53,336h15.16l-6.91-17.1C944.67,318.63,944.56,318.32,944.45,318Z" style="fill:none"/><path d="M383.06,446.17c-2.21,1.26-21.78,1.91-26.49,1.74a6.67,6.67,0,0,1-.83-.06h0l-.93-.11c-7.82-.84-14.18,1.64-20.16,7.88l-.67.72h0l-.53.59c-.62.71-1.23,1.45-1.84,2.23-2.58,3.32.84,7.79,5,6.54,8.65-2.64,39.39,0,48.44-2.73C389.07,461.74,399.32,437,383.06,446.17Z" style="fill:none"/><path d="M1198.45,320.36a11.69,11.69,0,0,0-4.3-2.92,14.85,14.85,0,0,0-5.57-1h-9.88V346.3h9.88a14.85,14.85,0,0,0,5.57-1,11.69,11.69,0,0,0,4.3-2.92,13.38,13.38,0,0,0,2.76-4.68,20.93,20.93,0,0,0,0-12.66A13.47,13.47,0,0,0,1198.45,320.36Z" style="fill:none"/><path d="M1151.1,218q-5.11,0-7.82,2.63a9.42,9.42,0,0,0-2.7,7.08,10.87,10.87,0,0,0,.69,3.94,8.45,8.45,0,0,0,2,3.09,9.26,9.26,0,0,0,3.3,2,13,13,0,0,0,4.5.71,13.41,13.41,0,0,0,4.57-.71,9.26,9.26,0,0,0,3.32-2,8.28,8.28,0,0,0,2-3.09,11.31,11.31,0,0,0,.67-3.94,9.42,9.42,0,0,0-2.7-7.08Q1156.26,218,1151.1,218Z" style="fill:none"/><path d="M476.38,114.35c-8.09-6.63-34.13-43.48-37.72-20.84-1.08,6.84-26.66,4.8-35.55,4s-9.32,13.69,8.67,10.22a74.85,74.85,0,0,1,26.93-.1,12,12,0,0,1,9.92,9.29c1.83,9.82-5.61,20.8-13.87,27.32-6,4.75-42.92,4.54-42.12,15,1.74,23,34.63,23.31,46.67,43.41a170.66,170.66,0,0,1,24.41,87.67c0,40.07-16.14,93.66-32.21,102.52-7.51,4.13.66,30.57,9,52.34,5.23,13.69,23.39,18.17,35.1,8.68l.19-.15C508.89,427.17,540,357.32,540,290.34S530,158.3,476.38,114.35Z" style="fill:#5351a2"/><path d="M225,141.45a180.14,180.14,0,0,0-41.92,16.08,15.73,15.73,0,0,0-8.57,13.77V412.68a15.78,15.78,0,0,0,10.3,14.56c10,3.9,25.41,9.79,38.65,14.31,10.93,3.74,22.47-3.86,22.47-14.81v-270C246,146.4,235.63,138.83,225,141.45Z" style="fill:#5351a2"/><path d="M387.12,422.49c-10.48,5.82-22.24,12-25.34,12.31-9.23.91-17.95,1.77-23.59,3.49-6.34,1.92-14.52,3.85-17.17,12.43-3.85,12.5-86.59,28-158.12-19.77-45.64-30.5-70.23-60.56-70.81-140.61-.32-44.92,18.74-92.53,48.38-127.69,34.08-40.44,115.42-67.71,130.9-27.89,3.26,8.38.58,18.13,2.59,19.24a5.27,5.27,0,0,0,5,0c7.6-3.92,6.24-11.48,5.15-17.56-1.38-7.72,21.57-42.35,27.25-4.37,5.19,34.78.51,71.87,6.57,77.13,3.89,3.38,8.07,4.26,11.47,2.42,5.35-2.88,6.34-11.32,3-25.79-2.32-10.07,1.52-19.46,11.4-27.92,6.6-5.63,15.2-10.25,24.09-13.8,1.59-.64,3.2-1.25,4.8-1.82l1.1-.38c16.16-5.61,31.92-7.74,36.86-6.25,10.53,3.18,15.58-2.19,17.26-4.64,3.47-5.06,3.38-12.77-.18-16.51a7.17,7.17,0,0,0-8.52-1.43c-8.8,4.2-34.11-.46-45.16-2.78a5.87,5.87,0,0,1-4.79-6,1.23,1.23,0,0,1,.07-.32c.71-1.82,8.19-19.2,33-14a6.37,6.37,0,0,0,4.92-1.16c9-6,1-19.3-9.24-15.41-14.7,5.57-31.7,11.35-35.16,9.74-8.49-4-8.51-10.32-5-16.93,7.27-13.53-.16-29.89-15.52-34.41C322.91,26.09,305.85,18.21,316,9.66c7.15-6-11.7-15.72-12.56-4.49-.37,4.9-7.92,9-9.78,15.57-1.46,5.12-8.31,6.78-12.17,2.92A51.68,51.68,0,0,1,274.8,16c-2.67-4.36-7.8-1.49-9.7,3.18-1,2.37-2.26,9-3.05,13.46-.55,3-17.41,17.24-9.63-4,6.07-16.6-26-17.83-20.13-2.3,2,5.37-4.82,8.72-6.57,11C223.2,40.6,108,53.07,58.21,120.68,19.84,172.76,0,197.89,0,290.34c0,41.27,17.24,115.89,56.72,157.32,0,0,36.52,38.76,40.07,34.56,9.71-11.5,18.64-16.29,23-2.11,1.35,4.4,2.73,9.85-1.63,9.2-2.76-.42-11.36,3.94-4.89,10.14l.23.16c3,2.07,65.42,31.95,127.42,39,53.9,6.12,107.19-8.48,124.63-30.23,9.86-12.3,55.61-7.26,64.92-14.81,18.53-15-11.88-44.14-18.37-62.28C408.62,421.54,396.52,417.28,387.12,422.49ZM385,463c-9.05,2.75-39.79.09-48.44,2.73-4.14,1.25-7.56-3.22-5-6.54.61-.78,1.22-1.52,1.84-2.23l.53-.59h0l.67-.72c6-6.24,12.34-8.72,20.16-7.88l.93.11h0a6.67,6.67,0,0,0,.83.06c4.71.17,24.28-.48,26.49-1.74C399.32,437,389.07,461.74,385,463Z" style="fill:url(#a)"/><path d="M664.55,247a2.43,2.43,0,0,0-1.58.72,30.14,30.14,0,0,1-3.61,2.8,19.42,19.42,0,0,1-3.87,1.93,22.82,22.82,0,0,1-4.52,1.13,38,38,0,0,1-5.5.36,24.13,24.13,0,0,1-9.38-1.82,21.06,21.06,0,0,1-7.53-5.29,25.08,25.08,0,0,1-5-8.49,32.94,32.94,0,0,1-1.84-11.43,32.44,32.44,0,0,1,1.84-11.24,24.44,24.44,0,0,1,5.14-8.51,22.48,22.48,0,0,1,7.87-5.38,26.05,26.05,0,0,1,10.06-1.89,28.07,28.07,0,0,1,5.41.46,24.69,24.69,0,0,1,4.11,1.12,20,20,0,0,1,3.06,1.43q1.29.77,2.25,1.44c.64.45,1.19.82,1.65,1.12a2.37,2.37,0,0,0,1.32.46,2.16,2.16,0,0,0,1.24-.31,3.41,3.41,0,0,0,.77-.79l3-4.26a31.2,31.2,0,0,0-22.77-8.7,37,37,0,0,0-14,2.56,31.56,31.56,0,0,0-10.88,7.19,32.41,32.41,0,0,0-7,11.1,38.73,38.73,0,0,0-2.51,14.2,41.45,41.45,0,0,0,2.34,14.21,32.42,32.42,0,0,0,6.6,11.07,29.56,29.56,0,0,0,10.28,7.18,34.18,34.18,0,0,0,13.44,2.55,34.76,34.76,0,0,0,14.47-2.72,29.23,29.23,0,0,0,10.21-7.61l-3.63-4A2,2,0,0,0,664.55,247Z" style="fill:#fff"/><path d="M712.81,211.8a13.62,13.62,0,0,0-8.59,2.84,22.09,22.09,0,0,0-6.14,7.92L697.5,215a3.22,3.22,0,0,0-.71-1.81,2.72,2.72,0,0,0-1.92-.53H690v48.45h8.52V230.26a19.34,19.34,0,0,1,5-7.51,11,11,0,0,1,7.43-2.58,13.15,13.15,0,0,1,3.88.45,7.22,7.22,0,0,0,2,.46,1.45,1.45,0,0,0,1.49-1.2l1.1-6.36a13.1,13.1,0,0,0-3-1.27A13.56,13.56,0,0,0,712.81,211.8Z" style="fill:#fff"/><path d="M741.05,203a5.64,5.64,0,0,0,2.32.48,5.76,5.76,0,0,0,2.34-.48,6.18,6.18,0,0,0,1.94-1.32,6.59,6.59,0,0,0,1.34-1.91,5.49,5.49,0,0,0,.5-2.32,5.83,5.83,0,0,0-.5-2.37,6.56,6.56,0,0,0-1.34-2,6.15,6.15,0,0,0-1.94-1.31,5.76,5.76,0,0,0-2.34-.48,5.64,5.64,0,0,0-2.32.48,6.24,6.24,0,0,0-3.23,3.27,6,6,0,0,0-.48,2.37,5.64,5.64,0,0,0,.48,2.32,6.46,6.46,0,0,0,3.23,3.23Z" style="fill:#fff"/><rect x="739.07" y="212.66" width="9.51" height="58.45" style="fill:#fff"/><path d="M797.89,257.4a13.33,13.33,0,0,0,3.54-4.92,15.83,15.83,0,0,0,1.2-6.2,10.76,10.76,0,0,0-1.08-5,10.91,10.91,0,0,0-2.84-3.51,16.7,16.7,0,0,0-4-2.39q-2.25-1-4.62-1.75c-1.57-.52-3.11-1-4.61-1.48a25.12,25.12,0,0,1-4-1.6,9.61,9.61,0,0,1-2.85-2.15,4.63,4.63,0,0,1-1.07-3.11,6,6,0,0,1,.64-2.75,6.7,6.7,0,0,1,1.87-2.23,9.05,9.05,0,0,1,2.94-1.5,12.63,12.63,0,0,1,3.88-.55,14.83,14.83,0,0,1,4.3.55,20,20,0,0,1,3.13,1.19c.88.43,1.62.82,2.23,1.17a3.3,3.3,0,0,0,1.62.53,1.88,1.88,0,0,0,1.77-1l1.92-3.11a20.39,20.39,0,0,0-6.58-4.14,23.27,23.27,0,0,0-8.59-1.51,21.69,21.69,0,0,0-7.31,1.15,16.63,16.63,0,0,0-5.41,3.09,13.25,13.25,0,0,0-3.35,4.49,13,13,0,0,0-1.14,5.34,11.78,11.78,0,0,0,1.07,5.28,11.23,11.23,0,0,0,2.85,3.66,16,16,0,0,0,4,2.46q2.26,1,4.64,1.75c1.58.51,3.12,1,4.64,1.46a23.28,23.28,0,0,1,4,1.62,9.35,9.35,0,0,1,2.85,2.25,5.14,5.14,0,0,1,1.07,3.33,7.88,7.88,0,0,1-.6,3.06,6.92,6.92,0,0,1-1.84,2.53,9.15,9.15,0,0,1-3.11,1.75,13.29,13.29,0,0,1-4.35.64,14.93,14.93,0,0,1-4.85-.67,17.36,17.36,0,0,1-3.3-1.48c-.91-.54-1.69-1-2.32-1.48a3.2,3.2,0,0,0-1.82-.67,2.6,2.6,0,0,0-1.39.33,3,3,0,0,0-.91,1l-2,3.25a23.15,23.15,0,0,0,7,4.23,24.44,24.44,0,0,0,9.18,1.65,23.45,23.45,0,0,0,7.84-1.19A17,17,0,0,0,797.89,257.4Z" style="fill:#fff"/><path d="M832.78,193.12a6.22,6.22,0,0,0-1.93-1.31,5.85,5.85,0,0,0-2.35-.48,5.64,5.64,0,0,0-2.32.48,6.38,6.38,0,0,0-1.91,1.31,6.06,6.06,0,0,0-1.79,4.33,5.8,5.8,0,0,0,.47,2.32,6.16,6.16,0,0,0,1.32,1.91,6.41,6.41,0,0,0,1.91,1.32,5.64,5.64,0,0,0,2.32.48,5.85,5.85,0,0,0,2.35-.48,6.25,6.25,0,0,0,1.93-1.32,6.4,6.4,0,0,0,1.34-1.91,5.35,5.35,0,0,0,.5-2.32,5.67,5.67,0,0,0-.5-2.37A6.38,6.38,0,0,0,832.78,193.12Z" style="fill:#fff"/><rect x="824.2" y="212.66" width="8.51" height="48.45" style="fill:#fff"/><path d="M886.68,241.28a10.91,10.91,0,0,0-2.84-3.51,16.7,16.7,0,0,0-4-2.39q-2.25-1-4.61-1.75c-1.58-.52-3.12-1-4.62-1.48a25.12,25.12,0,0,1-4-1.6,9.56,9.56,0,0,1-2.84-2.15,4.58,4.58,0,0,1-1.08-3.11,6,6,0,0,1,.65-2.75,6.67,6.67,0,0,1,1.86-2.23,9.26,9.26,0,0,1,2.94-1.5,12.63,12.63,0,0,1,3.88-.55,14.78,14.78,0,0,1,4.3.55,20.56,20.56,0,0,1,3.14,1.19q1.3.65,2.22,1.17a3.34,3.34,0,0,0,1.63.53,1.88,1.88,0,0,0,1.76-1l1.92-3.11a20.28,20.28,0,0,0-6.58-4.14,23.22,23.22,0,0,0-8.58-1.51,21.71,21.71,0,0,0-7.32,1.15,16.63,16.63,0,0,0-5.41,3.09,13.09,13.09,0,0,0-3.34,4.49,12.86,12.86,0,0,0-1.15,5.34,11.92,11.92,0,0,0,1.07,5.28,11.23,11.23,0,0,0,2.85,3.66,16.22,16.22,0,0,0,4,2.46c1.52.66,3.06,1.24,4.64,1.75s3.13,1,4.64,1.46a23.28,23.28,0,0,1,4,1.62,9.35,9.35,0,0,1,2.85,2.25,5.08,5.08,0,0,1,1.07,3.33,8.06,8.06,0,0,1-.59,3.06,7,7,0,0,1-1.85,2.53,9.1,9.1,0,0,1-3.1,1.75,13.39,13.39,0,0,1-4.36.64,14.93,14.93,0,0,1-4.85-.67,17.65,17.65,0,0,1-3.3-1.48c-.91-.54-1.68-1-2.32-1.48a3.18,3.18,0,0,0-1.82-.67,2.62,2.62,0,0,0-1.39.33,2.88,2.88,0,0,0-.9,1l-2,3.25a23.27,23.27,0,0,0,7,4.23,24.44,24.44,0,0,0,9.18,1.65,23.56,23.56,0,0,0,7.85-1.19A17.19,17.19,0,0,0,883,257.4a13.56,13.56,0,0,0,3.54-4.92,16,16,0,0,0,1.19-6.2A10.76,10.76,0,0,0,886.68,241.28Z" style="fill:#fff"/><path d="M959.79,202a30.59,30.59,0,0,0-10.67-7,37.09,37.09,0,0,0-13.77-2.46H909.71v68.54h25.64a37.09,37.09,0,0,0,13.77-2.46,30.27,30.27,0,0,0,17.56-17.77,41.47,41.47,0,0,0,0-28A31.42,31.42,0,0,0,959.79,202Zm-1.91,36.13a23.64,23.64,0,0,1-4.88,8.4,21,21,0,0,1-7.66,5.23,26.22,26.22,0,0,1-10,1.82H919V200.08h16.31a26.41,26.41,0,0,1,10,1.82,20.78,20.78,0,0,1,7.66,5.26,23.82,23.82,0,0,1,4.88,8.42,37.88,37.88,0,0,1,0,22.57Z" style="fill:#fff"/><path d="M1023.54,217.56a18.09,18.09,0,0,0-6.36-4.21,21.64,21.64,0,0,0-8-1.46,23.33,23.33,0,0,0-9.47,1.85,20.41,20.41,0,0,0-7.13,5.07,22.43,22.43,0,0,0-4.47,7.62,28.17,28.17,0,0,0-1.56,9.47,32.92,32.92,0,0,0,1.73,11.1,22.86,22.86,0,0,0,4.8,8.11,20.38,20.38,0,0,0,7.32,5,24.69,24.69,0,0,0,9.26,1.7,30.86,30.86,0,0,0,5.3-.46,29.11,29.11,0,0,0,5.19-1.36,22.92,22.92,0,0,0,4.71-2.32,16.16,16.16,0,0,0,3.78-3.32l-2.39-3.11a1.86,1.86,0,0,0-1.62-.81,3.64,3.64,0,0,0-1.94.74,30.19,30.19,0,0,1-2.8,1.6,26.65,26.65,0,0,1-4,1.6,18.1,18.1,0,0,1-5.53.74,16.36,16.36,0,0,1-6.21-1.12,12.63,12.63,0,0,1-4.79-3.4,16.18,16.18,0,0,1-3.15-5.66,26.84,26.84,0,0,1-1.25-8h32.24a1.76,1.76,0,0,0,1.62-.67,5.53,5.53,0,0,0,.43-2.68,26.4,26.4,0,0,0-1.5-9.21A19.31,19.31,0,0,0,1023.54,217.56Zm-28.31,14a16.77,16.77,0,0,1,4.4-9.88q3.54-3.56,9.71-3.56a13.09,13.09,0,0,1,5.19,1,10.74,10.74,0,0,1,3.85,2.77,12.17,12.17,0,0,1,2.39,4.26,17.28,17.28,0,0,1,.81,5.43Z" style="fill:#fff"/><path d="M1078.93,252.48a16,16,0,0,0,1.19-6.2,10.89,10.89,0,0,0-1.07-5,11.07,11.07,0,0,0-2.85-3.51,16.7,16.7,0,0,0-4-2.39c-1.5-.64-3-1.22-4.61-1.75s-3.12-1-4.62-1.48a25.12,25.12,0,0,1-4-1.6,9.56,9.56,0,0,1-2.84-2.15,4.58,4.58,0,0,1-1.08-3.11,6,6,0,0,1,.65-2.75,6.67,6.67,0,0,1,1.86-2.23,9.21,9.21,0,0,1,3-1.5,12.56,12.56,0,0,1,3.87-.55,14.78,14.78,0,0,1,4.3.55,20.16,20.16,0,0,1,3.14,1.19c.87.43,1.62.82,2.22,1.17a3.37,3.37,0,0,0,1.63.53,1.9,1.9,0,0,0,1.77-1l1.91-3.11a20.28,20.28,0,0,0-6.58-4.14,23.18,23.18,0,0,0-8.58-1.51,21.8,21.8,0,0,0-7.32,1.15,16.47,16.47,0,0,0-5.4,3.09,13,13,0,0,0-3.35,4.49,12.86,12.86,0,0,0-1.15,5.34,11.78,11.78,0,0,0,1.08,5.28,11.07,11.07,0,0,0,2.84,3.66,16.22,16.22,0,0,0,4,2.46c1.52.66,3.06,1.24,4.64,1.75s3.13,1,4.64,1.46a23,23,0,0,1,4,1.62,9.35,9.35,0,0,1,2.85,2.25,5.09,5.09,0,0,1,1.08,3.33,7.88,7.88,0,0,1-.6,3.06,6.92,6.92,0,0,1-1.84,2.53,9.25,9.25,0,0,1-3.11,1.75,13.39,13.39,0,0,1-4.36.64,14.93,14.93,0,0,1-4.85-.67,17.65,17.65,0,0,1-3.3-1.48c-.91-.54-1.68-1-2.32-1.48a3.18,3.18,0,0,0-1.82-.67,2.56,2.56,0,0,0-1.38.33,2.9,2.9,0,0,0-.91,1l-2,3.25a23.27,23.27,0,0,0,7,4.23,24.48,24.48,0,0,0,9.18,1.65,23.56,23.56,0,0,0,7.85-1.19,17.09,17.09,0,0,0,5.74-3.28A13.56,13.56,0,0,0,1078.93,252.48Z" style="fill:#fff"/><rect x="1101.69" y="212.66" width="8.51" height="48.45" style="fill:#fff"/><path d="M1101.76,201.68a6.33,6.33,0,0,0,1.92,1.32,5.6,5.6,0,0,0,2.32.48,5.76,5.76,0,0,0,2.34-.48,6.3,6.3,0,0,0,1.94-1.32,6.78,6.78,0,0,0,1.34-1.91,5.49,5.49,0,0,0,.5-2.32,5.83,5.83,0,0,0-.5-2.37,6.75,6.75,0,0,0-1.34-2,6.27,6.27,0,0,0-1.94-1.31,5.76,5.76,0,0,0-2.34-.48,5.6,5.6,0,0,0-2.32.48,6.15,6.15,0,0,0-3.23,3.27,6,6,0,0,0-.48,2.37,5.64,5.64,0,0,0,.48,2.32A6.31,6.31,0,0,0,1101.76,201.68Z" style="fill:#fff"/><path d="M1157,212.54a24.31,24.31,0,0,0-5.91-.69,23.52,23.52,0,0,0-7.39,1.1,17.16,17.16,0,0,0-5.81,3.13,14.17,14.17,0,0,0-3.8,4.92,14.93,14.93,0,0,0-1.37,6.44,14.66,14.66,0,0,0,2,7.77,15.09,15.09,0,0,0,5.62,5.33,12.39,12.39,0,0,0-2.67,1.77,12.58,12.58,0,0,0-1.94,2.1,8.21,8.21,0,0,0-1.17,2.22,6.6,6.6,0,0,0-.39,2.17,6.91,6.91,0,0,0,1.22,4.28,8.62,8.62,0,0,0,3.28,2.55,15.59,15.59,0,0,0-6.24,4,8.76,8.76,0,0,0-2.27,6.1,9.74,9.74,0,0,0,1.31,4.86,12.28,12.28,0,0,0,4,4.1,21.67,21.67,0,0,0,6.62,2.82,36.81,36.81,0,0,0,9.31,1.06,30.44,30.44,0,0,0,9.51-1.38,23,23,0,0,0,7.13-3.68,16.64,16.64,0,0,0,4.47-5.26,12.9,12.9,0,0,0,1.56-6.1,10,10,0,0,0-1.39-5.52,9.79,9.79,0,0,0-3.68-3.34,18.22,18.22,0,0,0-5.22-1.74,33.5,33.5,0,0,0-6-.53h-6a30.24,30.24,0,0,1-5.21-.4,9.55,9.55,0,0,1-3.68-1.31,3,3,0,0,1-1.39-2.69,3.89,3.89,0,0,1,.79-2.23,8.2,8.2,0,0,1,2.32-2.13,24.16,24.16,0,0,0,6.41.82,23.18,23.18,0,0,0,7.29-1.1,17.06,17.06,0,0,0,5.74-3.16,14.6,14.6,0,0,0,3.78-4.95,15.77,15.77,0,0,0-.26-13.37l5.5-.76q2-.44,2-2v-3.16H1162A18.6,18.6,0,0,0,1157,212.54ZM1143.78,257a18.51,18.51,0,0,0,4.93.65h5.07a35.87,35.87,0,0,1,4.73.29,18.92,18.92,0,0,1,4,.9,6.58,6.58,0,0,1,2.73,1.73,4.3,4.3,0,0,1,1,3,6.58,6.58,0,0,1-1,3.56,8.81,8.81,0,0,1-2.9,2.78,15.19,15.19,0,0,1-4.61,1.8,27,27,0,0,1-6.17.64,27.72,27.72,0,0,1-6.15-.6,15,15,0,0,1-4.33-1.63,7.15,7.15,0,0,1-2.55-2.44,5.85,5.85,0,0,1-.84-3,6.37,6.37,0,0,1,1.7-4.46A14,14,0,0,1,1143.78,257Zm17.22-25.4a8.28,8.28,0,0,1-2,3.09,9.26,9.26,0,0,1-3.32,2,13.41,13.41,0,0,1-4.57.71,13,13,0,0,1-4.5-.71,9.26,9.26,0,0,1-3.3-2,8.45,8.45,0,0,1-2-3.09,10.87,10.87,0,0,1-.69-3.94,9.42,9.42,0,0,1,2.7-7.08q2.7-2.62,7.82-2.63t7.87,2.63a9.42,9.42,0,0,1,2.7,7.08A11.31,11.31,0,0,1,1161,231.62Z" style="fill:#fff"/><path d="M1229.42,216.94a13.67,13.67,0,0,0-5.07-3.73,17.46,17.46,0,0,0-7-1.32,18.32,18.32,0,0,0-9,2.16,27.11,27.11,0,0,0-7,5.64l-.67-5.26a2.18,2.18,0,0,0-2.3-1.77h-5.07v48.45h8.52V225.43a23.39,23.39,0,0,1,6-4.93,14.29,14.29,0,0,1,7-1.81c3.45,0,6,1,7.68,3s2.51,4.87,2.51,8.54v30.85h8.51V230.26a25.38,25.38,0,0,0-1-7.51A16.55,16.55,0,0,0,1229.42,216.94Z" style="fill:#fff"/><path d="M1278.7,252.6a1.56,1.56,0,0,0-.88.35c-.34.24-.74.51-1.22.79a10,10,0,0,1-1.7.79,6.73,6.73,0,0,1-2.32.36,5.19,5.19,0,0,1-3.83-1.48,6.23,6.23,0,0,1-1.48-4.55V219.79h13.87v-6.17h-13.87v-16.7H1263a2,2,0,0,0-1.34.46,1.78,1.78,0,0,0-.62,1.17l-2,15-7.93,1v3.4a1.76,1.76,0,0,0,.52,1.41,1.92,1.92,0,0,0,1.29.46h5.84v29.65q0,6,3.08,9.23t8.83,3.2a18.09,18.09,0,0,0,6.41-1.17,15.76,15.76,0,0,0,5.31-3.23l-2.49-4.06A1.47,1.47,0,0,0,1278.7,252.6Z" style="fill:#fff"/><path d="M1335.66,212.66a2.53,2.53,0,0,0-1.5.5,2.76,2.76,0,0,0-1,1.27L1320.6,244.9c-.29.73-.54,1.45-.77,2.15l-.67,2.15c-.16-.73-.34-1.45-.55-2.15a19.64,19.64,0,0,0-.74-2.11l-13-30.51a3.36,3.36,0,0,0-.91-1.22,2.49,2.49,0,0,0-1.72-.55h-7.37l20,45.63-8.85,19.22h6.31a3,3,0,0,0,2-.57,4.31,4.31,0,0,0,1.07-1.53l27-62.75Z" style="fill:#fff"/><path d="M773.18,342.6a.49.49,0,0,0-.25.06,1.5,1.5,0,0,0-.23.15,16.29,16.29,0,0,1-2,1.63,12.11,12.11,0,0,1-2.23,1.17,12.71,12.71,0,0,1-2.62.72,19.56,19.56,0,0,1-3.24.24,13.78,13.78,0,0,1-5.37-1,12.39,12.39,0,0,1-4.29-3,13.79,13.79,0,0,1-2.84-4.77,18.54,18.54,0,0,1-1-6.41,17.87,17.87,0,0,1,1-6.3,13.88,13.88,0,0,1,2.9-4.79,12.85,12.85,0,0,1,4.45-3,14.72,14.72,0,0,1,5.67-1.07,16.7,16.7,0,0,1,3,.25,14.55,14.55,0,0,1,2.32.63,9,9,0,0,1,1.73.81c.49.29.9.57,1.25.81l.84.62a1.06,1.06,0,0,0,.55.26.66.66,0,0,0,.6-.29l.74-1.08a19.29,19.29,0,0,0-2.29-1.77,14,14,0,0,0-2.5-1.28,16.4,16.4,0,0,0-2.86-.79,19.42,19.42,0,0,0-3.37-.27,17.61,17.61,0,0,0-6.73,1.25,15.27,15.27,0,0,0-5.24,3.54,16.17,16.17,0,0,0-3.4,5.47,19.76,19.76,0,0,0-1.2,7,20.61,20.61,0,0,0,1.17,7.12A16.11,16.11,0,0,0,751,344a14.26,14.26,0,0,0,5,3.49,16.46,16.46,0,0,0,6.44,1.23,19.29,19.29,0,0,0,3.86-.35,15.44,15.44,0,0,0,3.23-1,13.76,13.76,0,0,0,2.71-1.53,15.2,15.2,0,0,0,2.3-2l-1-1A.54.54,0,0,0,773.18,342.6Z" style="fill:#fff"/><path d="M798.41,332.7a13.42,13.42,0,0,0,4-1,10.46,10.46,0,0,0,3-2,8.57,8.57,0,0,0,1.92-2.81,9,9,0,0,0,.67-3.54,7.91,7.91,0,0,0-2.89-6.64q-2.89-2.26-8.76-2.26h-8.63v33.84h2.44V333h4.42a3.69,3.69,0,0,1,1.45.22,2.36,2.36,0,0,1,.87.74l10.84,13.73a1.7,1.7,0,0,0,.54.48,1.45,1.45,0,0,0,.65.14h2.13l-11.64-14.64A4.18,4.18,0,0,0,798.41,332.7Zm-2.35-1.53h-5.88V316.39h6.19c3,0,5.31.58,6.89,1.74a6.23,6.23,0,0,1,2.37,5.36,7.56,7.56,0,0,1-.65,3.18,6.67,6.67,0,0,1-1.87,2.42,8.78,8.78,0,0,1-3,1.54A13.84,13.84,0,0,1,796.06,331.17Z" style="fill:#fff"/><rect x="822.87" y="314.45" width="2.46" height="33.84" style="fill:#fff"/><path d="M856.3,332.58a11.23,11.23,0,0,0-2.72-1.59c-1-.42-2.06-.81-3.12-1.16s-2.12-.71-3.13-1.07a12.49,12.49,0,0,1-2.72-1.32,6.66,6.66,0,0,1-1.93-1.92,5.16,5.16,0,0,1-.73-2.84,6.46,6.46,0,0,1,.5-2.51,5.93,5.93,0,0,1,1.44-2.11,6.79,6.79,0,0,1,2.35-1.43,9.23,9.23,0,0,1,3.25-.53,9,9,0,0,1,3.1.46,10.32,10.32,0,0,1,2.1,1,9.59,9.59,0,0,1,1.33,1,1.42,1.42,0,0,0,.81.44.66.66,0,0,0,.62-.41l.57-1.1a11.25,11.25,0,0,0-3.81-2.55,12.65,12.65,0,0,0-4.73-.84,11.13,11.13,0,0,0-4.18.73,9.29,9.29,0,0,0-3.08,1.93,8.21,8.21,0,0,0-1.89,2.79,8.6,8.6,0,0,0-.65,3.28,8.07,8.07,0,0,0,.73,3.62,7.41,7.41,0,0,0,1.93,2.42,11,11,0,0,0,2.72,1.59c1,.41,2.05.78,3.12,1.12s2.11.68,3.13,1a12.45,12.45,0,0,1,2.72,1.3,6.23,6.23,0,0,1,1.92,1.94,5.42,5.42,0,0,1,.74,2.95,8.42,8.42,0,0,1-.58,3.1,7.11,7.11,0,0,1-1.66,2.5,8,8,0,0,1-2.67,1.66,9.92,9.92,0,0,1-3.6.61,10.8,10.8,0,0,1-4.64-1,10.35,10.35,0,0,1-1.56-.91c-.45-.33-.83-.63-1.15-.91l-.81-.71a1,1,0,0,0-.55-.28.83.83,0,0,0-.67.36l-.67,1.05a13.58,13.58,0,0,0,4.23,3.24,13,13,0,0,0,5.76,1.18,12.22,12.22,0,0,0,4.6-.8,9.82,9.82,0,0,0,3.39-2.19,9.29,9.29,0,0,0,2.12-3.26,11.11,11.11,0,0,0,.73-4,7.59,7.59,0,0,0-.73-3.48A7.36,7.36,0,0,0,856.3,332.58Z" style="fill:#fff"/><rect x="871.73" y="314.45" width="2.46" height="33.84" style="fill:#fff"/><path d="M905.15,332.58a11,11,0,0,0-2.71-1.59c-1-.42-2.06-.81-3.13-1.16s-2.11-.71-3.12-1.07a12.27,12.27,0,0,1-2.72-1.32,6.66,6.66,0,0,1-1.93-1.92,5.08,5.08,0,0,1-.73-2.84,6.45,6.45,0,0,1,.49-2.51,6.2,6.2,0,0,1,1.44-2.11,6.89,6.89,0,0,1,2.35-1.43,9.27,9.27,0,0,1,3.25-.53,9.07,9.07,0,0,1,3.11.46,10.23,10.23,0,0,1,3.43,2,1.43,1.43,0,0,0,.8.44.67.67,0,0,0,.63-.41l.57-1.1a11.28,11.28,0,0,0-3.82-2.55,12.62,12.62,0,0,0-4.73-.84,11.17,11.17,0,0,0-4.18.73,9.24,9.24,0,0,0-3.07,1.93,8.39,8.39,0,0,0-1.9,2.79,8.59,8.59,0,0,0-.64,3.28,7.94,7.94,0,0,0,.73,3.62,7.41,7.41,0,0,0,1.93,2.42,11,11,0,0,0,2.71,1.59c1,.41,2.06.78,3.13,1.12s2.11.68,3.12,1a12.24,12.24,0,0,1,2.72,1.3,6.27,6.27,0,0,1,1.93,1.94,5.42,5.42,0,0,1,.73,2.95,8.41,8.41,0,0,1-.57,3.1,7.13,7.13,0,0,1-1.67,2.5,7.81,7.81,0,0,1-2.67,1.66,9.83,9.83,0,0,1-3.59.61,10.9,10.9,0,0,1-4.65-1,9.75,9.75,0,0,1-1.55-.91c-.45-.33-.83-.63-1.15-.91l-.82-.71a.92.92,0,0,0-.55-.28.85.85,0,0,0-.67.36l-.67,1.05a13.62,13.62,0,0,0,4.24,3.24,13,13,0,0,0,5.76,1.18,12.2,12.2,0,0,0,4.59-.8,9.86,9.86,0,0,0,3.4-2.19,9.26,9.26,0,0,0,2.11-3.26,10.9,10.9,0,0,0,.73-4,7.47,7.47,0,0,0-.73-3.48A7.36,7.36,0,0,0,905.15,332.58Z" style="fill:#fff"/><path d="M942.89,314.45l-13.84,33.84h1.86a.88.88,0,0,0,.58-.19,1,1,0,0,0,.33-.46l4-9.82h16.62l4,9.82a1.19,1.19,0,0,0,.34.47.83.83,0,0,0,.55.18h1.89l-13.85-33.84ZM936.53,336l6.91-17.08c.11-.28.23-.6.34-.94s.22-.71.33-1.09c.11.38.23.75.34,1.09s.22.65.33.92l6.91,17.1Z" style="fill:#fff"/><path d="M993.28,342.84a13.15,13.15,0,0,0,.07,1.38l-21.9-29.31a1,1,0,0,0-.41-.37,1.26,1.26,0,0,0-.53-.09h-1.19v33.84h2.13V319.81a13.35,13.35,0,0,0-.08-1.37l22,29.37a1,1,0,0,0,.89.48h1.17V314.45h-2.15Z" style="fill:#fff"/><rect x="1011.14" y="314.45" width="2.46" height="33.84" style="fill:#fff"/><path d="M1060.55,314.52a.84.84,0,0,0-.38.39l-13.3,23.5a7.8,7.8,0,0,0-.35.71l-.3.75a8.81,8.81,0,0,0-.62-1.43L1032,314.91a.86.86,0,0,0-.4-.39,1.54,1.54,0,0,0-.53-.07h-1.68v33.84h2.13V319.45a12.41,12.41,0,0,0-.07-1.34l13.68,23.67a1.07,1.07,0,0,0,1,.63h.39a1,1,0,0,0,.95-.63l13.32-23.65a12.32,12.32,0,0,0-.07,1.32v28.84h2.15V314.45h-1.7A1.48,1.48,0,0,0,1060.55,314.52Z" style="fill:#fff"/><path d="M1086.78,314.45l-13.84,33.84h1.86a.9.9,0,0,0,.58-.19,1,1,0,0,0,.33-.46l4-9.82h16.62l4,9.82a1.19,1.19,0,0,0,.34.47.83.83,0,0,0,.55.18h1.89l-13.85-33.84ZM1080.42,336l6.91-17.08c.11-.28.23-.6.34-.94s.22-.71.33-1.09c.11.38.23.75.34,1.09s.22.65.33.92l6.91,17.1Z" style="fill:#fff"/><polygon points="1106.27 316.53 1118.23 316.53 1118.23 348.29 1120.67 348.29 1120.67 316.53 1132.55 316.53 1132.55 314.45 1106.27 314.45 1106.27 316.53" style="fill:#fff"/><polygon points="1143.19 348.29 1163.47 348.29 1163.47 346.26 1145.66 346.26 1145.66 332.15 1160.48 332.15 1160.48 330.16 1145.66 330.16 1145.66 316.48 1163.47 316.48 1163.47 314.45 1143.19 314.45 1143.19 348.29" style="fill:#fff"/><path d="M1200.25,319a14.32,14.32,0,0,0-5.09-3.38,17.8,17.8,0,0,0-6.58-1.17h-12.34v33.84h12.34a17.8,17.8,0,0,0,6.58-1.17,14.43,14.43,0,0,0,5.09-3.37,15.25,15.25,0,0,0,3.3-5.34,21.77,21.77,0,0,0,0-14.08A15.11,15.11,0,0,0,1200.25,319Zm1,18.7a13.38,13.38,0,0,1-2.76,4.68,11.69,11.69,0,0,1-4.3,2.92,14.85,14.85,0,0,1-5.57,1h-9.88V316.44h9.88a14.85,14.85,0,0,1,5.57,1,11.69,11.69,0,0,1,4.3,2.92,13.47,13.47,0,0,1,2.76,4.68,20.93,20.93,0,0,1,0,12.66Z" style="fill:#fff"/></svg>